<svg xmlns="http://www.w3.org/2000/svg" xmlns:xlink="http://www.w3.org/1999/xlink" width="48" zoomAndPan="magnify" viewBox="0 0 36 36.000001" height="48" preserveAspectRatio="xMidYMid meet" version="1.0"><defs><g/><clipPath id="354663a8b0"><path d="M 0.652344 2 L 16 2 L 16 14 L 0.652344 14 Z M 0.652344 2 " clip-rule="nonzero"/></clipPath><clipPath id="3e62aa202e"><path d="M 25 6 L 33.8125 6 L 33.8125 17 L 25 17 Z M 25 6 " clip-rule="nonzero"/></clipPath><clipPath id="12ed2bcba3"><rect x="0" width="34" y="0" height="19"/></clipPath><clipPath id="4bc07446d1"><path d="M 0.558594 1 L 12 1 L 12 5 L 0.558594 5 Z M 0.558594 1 " clip-rule="nonzero"/></clipPath><clipPath id="b5df689880"><rect x="0" width="13" y="0" height="6"/></clipPath><clipPath id="2f6436174e"><path d="M 0.699219 1 L 8 1 L 8 5.921875 L 0.699219 5.921875 Z M 0.699219 1 " clip-rule="nonzero"/></clipPath><clipPath id="9484f23d52"><rect x="0" width="9" y="0" height="6"/></clipPath></defs><g transform="matrix(1, 0, 0, 1, 1, 8)"><g clip-path="url(#12ed2bcba3)"><g clip-path="url(#354663a8b0)"><g fill="#cc007e" fill-opacity="1"><g transform="translate(0.884158, 12.985218)"><g><path d="M 10.34375 -9.5 C 10.34375 -9.363281 10.28125 -9.148438 10.15625 -8.859375 C 10.03125 -8.566406 9.867188 -8.25 9.671875 -7.90625 C 9.359375 -7.351562 9.0625 -6.765625 8.78125 -6.140625 C 8.5 -5.523438 8.253906 -4.910156 8.046875 -4.296875 C 7.835938 -3.679688 7.671875 -3.09375 7.546875 -2.53125 C 7.703125 -2.757812 7.875 -3.007812 8.0625 -3.28125 C 8.257812 -3.5625 8.46875 -3.867188 8.6875 -4.203125 C 8.914062 -4.554688 9.109375 -4.847656 9.265625 -5.078125 C 9.421875 -5.304688 9.535156 -5.46875 9.609375 -5.5625 L 11.03125 -7.5 C 11.351562 -7.945312 11.628906 -8.328125 11.859375 -8.640625 C 12.085938 -8.953125 12.28125 -9.195312 12.4375 -9.375 C 12.707031 -9.726562 12.941406 -9.972656 13.140625 -10.109375 C 13.335938 -10.253906 13.539062 -10.328125 13.75 -10.328125 C 13.96875 -10.328125 14.148438 -10.242188 14.296875 -10.078125 C 14.441406 -9.921875 14.515625 -9.726562 14.515625 -9.5 C 14.515625 -9.363281 14.453125 -9.148438 14.328125 -8.859375 C 14.203125 -8.566406 14.035156 -8.25 13.828125 -7.90625 C 13.492188 -7.332031 13.175781 -6.738281 12.875 -6.125 C 12.570312 -5.507812 12.296875 -4.898438 12.046875 -4.296875 C 11.804688 -3.703125 11.601562 -3.140625 11.4375 -2.609375 C 11.28125 -2.078125 11.179688 -1.609375 11.140625 -1.203125 L 11.125 -1.03125 C 11.125 -0.882812 11.140625 -0.757812 11.171875 -0.65625 C 11.203125 -0.5625 11.253906 -0.515625 11.328125 -0.515625 C 11.617188 -0.515625 11.890625 -0.660156 12.140625 -0.953125 C 12.398438 -1.242188 12.617188 -1.5625 12.796875 -1.90625 C 12.890625 -2.082031 12.992188 -2.296875 13.109375 -2.546875 C 13.234375 -2.804688 13.375 -3.101562 13.53125 -3.4375 C 13.601562 -3.601562 13.679688 -3.738281 13.765625 -3.84375 C 13.847656 -3.945312 13.960938 -3.976562 14.109375 -3.9375 L 14.125 -3.9375 C 14.300781 -3.9375 14.390625 -3.851562 14.390625 -3.6875 C 14.390625 -3.625 14.382812 -3.582031 14.375 -3.5625 C 14.363281 -3.53125 14.351562 -3.484375 14.34375 -3.421875 C 14.332031 -3.359375 14.304688 -3.28125 14.265625 -3.1875 C 13.972656 -2.394531 13.632812 -1.707031 13.25 -1.125 C 12.875 -0.539062 12.476562 -0.09375 12.0625 0.21875 C 11.65625 0.53125 11.253906 0.6875 10.859375 0.6875 C 10.316406 0.6875 10 0.3125 9.90625 -0.4375 C 9.863281 -0.882812 9.96875 -1.476562 10.21875 -2.21875 C 10.476562 -2.957031 10.832031 -3.796875 11.28125 -4.734375 C 11.738281 -5.671875 12.25 -6.65625 12.8125 -7.6875 C 12.945312 -7.9375 13.015625 -8.117188 13.015625 -8.234375 C 13.015625 -8.316406 12.984375 -8.359375 12.921875 -8.359375 C 12.847656 -8.359375 12.75 -8.3125 12.625 -8.21875 C 12.5625 -8.175781 12.492188 -8.117188 12.421875 -8.046875 C 12.359375 -7.972656 12.289062 -7.882812 12.21875 -7.78125 C 11.851562 -7.289062 11.546875 -6.878906 11.296875 -6.546875 C 11.046875 -6.222656 10.832031 -5.9375 10.65625 -5.6875 C 10.476562 -5.4375 10.316406 -5.203125 10.171875 -4.984375 C 10.023438 -4.773438 9.867188 -4.539062 9.703125 -4.28125 C 9.535156 -4.03125 9.328125 -3.71875 9.078125 -3.34375 C 8.703125 -2.75 8.359375 -2.226562 8.046875 -1.78125 C 7.734375 -1.34375 7.460938 -0.976562 7.234375 -0.6875 C 6.773438 -0.113281 6.359375 0.171875 5.984375 0.171875 C 5.828125 0.171875 5.695312 0.113281 5.59375 0 C 5.488281 -0.101562 5.4375 -0.265625 5.4375 -0.484375 C 5.4375 -0.703125 5.503906 -1.019531 5.640625 -1.4375 C 5.785156 -1.851562 5.976562 -2.332031 6.21875 -2.875 C 6.457031 -3.425781 6.726562 -4.015625 7.03125 -4.640625 C 7.34375 -5.265625 7.664062 -5.894531 8 -6.53125 C 8.34375 -7.164062 8.675781 -7.765625 9 -8.328125 C 9.125 -8.523438 9.222656 -8.722656 9.296875 -8.921875 C 9.378906 -9.128906 9.421875 -9.289062 9.421875 -9.40625 C 9.421875 -9.476562 9.398438 -9.515625 9.359375 -9.515625 C 9.097656 -9.515625 8.769531 -9.234375 8.375 -8.671875 C 8.175781 -8.378906 7.945312 -8.035156 7.6875 -7.640625 C 7.425781 -7.253906 7.140625 -6.804688 6.828125 -6.296875 C 6.617188 -5.953125 6.445312 -5.675781 6.3125 -5.46875 C 6.175781 -5.269531 6.085938 -5.132812 6.046875 -5.0625 L 5.359375 -4.0625 C 4.898438 -3.394531 4.503906 -2.832031 4.171875 -2.375 C 3.847656 -1.914062 3.554688 -1.535156 3.296875 -1.234375 C 3.035156 -0.941406 2.769531 -0.679688 2.5 -0.453125 C 2.09375 -0.128906 1.695312 0.03125 1.3125 0.03125 C 1.0625 0.03125 0.84375 0.00390625 0.65625 -0.046875 C 0.46875 -0.109375 0.285156 -0.226562 0.109375 -0.40625 C 0.0351562 -0.476562 0 -0.554688 0 -0.640625 C 0 -0.722656 0.0351562 -0.789062 0.109375 -0.84375 C 0.179688 -0.90625 0.273438 -0.9375 0.390625 -0.9375 C 0.472656 -0.9375 0.570312 -0.90625 0.6875 -0.84375 C 0.914062 -0.769531 1.054688 -0.734375 1.109375 -0.734375 C 1.378906 -0.734375 1.65625 -0.894531 1.9375 -1.21875 C 2.226562 -1.550781 2.519531 -1.96875 2.8125 -2.46875 C 2.945312 -2.71875 3.101562 -3.015625 3.28125 -3.359375 C 3.46875 -3.703125 3.671875 -4.09375 3.890625 -4.53125 C 4.316406 -5.363281 4.695312 -6.085938 5.03125 -6.703125 C 5.375 -7.316406 5.710938 -7.859375 6.046875 -8.328125 C 6.378906 -8.804688 6.738281 -9.226562 7.125 -9.59375 C 7.707031 -10.15625 8.316406 -10.4375 8.953125 -10.4375 C 9.359375 -10.4375 9.691406 -10.351562 9.953125 -10.1875 C 10.210938 -10.03125 10.34375 -9.800781 10.34375 -9.5 Z M 13.734375 -9.828125 C 13.773438 -9.835938 13.8125 -9.859375 13.84375 -9.890625 C 13.875 -9.929688 13.890625 -9.972656 13.890625 -10.015625 C 13.890625 -10.054688 13.867188 -10.082031 13.828125 -10.09375 C 13.796875 -10.113281 13.738281 -10.109375 13.65625 -10.078125 C 13.570312 -10.054688 13.53125 -10.015625 13.53125 -9.953125 C 13.53125 -9.859375 13.597656 -9.816406 13.734375 -9.828125 Z M 8.3125 -9.71875 C 8.40625 -9.769531 8.453125 -9.832031 8.453125 -9.90625 C 8.453125 -9.96875 8.414062 -10 8.34375 -10 C 8.320312 -10 8.269531 -9.984375 8.1875 -9.953125 C 8.113281 -9.921875 8.078125 -9.878906 8.078125 -9.828125 C 8.078125 -9.773438 8.097656 -9.738281 8.140625 -9.71875 C 8.191406 -9.695312 8.25 -9.695312 8.3125 -9.71875 Z M 12.96875 -9.234375 C 13.039062 -9.316406 13.160156 -9.4375 13.328125 -9.59375 C 13.410156 -9.664062 13.453125 -9.738281 13.453125 -9.8125 C 13.453125 -9.863281 13.425781 -9.890625 13.375 -9.890625 C 13.34375 -9.890625 13.285156 -9.863281 13.203125 -9.8125 C 13.078125 -9.71875 12.929688 -9.570312 12.765625 -9.375 C 12.722656 -9.34375 12.703125 -9.300781 12.703125 -9.25 C 12.703125 -9.175781 12.742188 -9.140625 12.828125 -9.140625 C 12.890625 -9.140625 12.9375 -9.171875 12.96875 -9.234375 Z M 5.484375 -6.203125 C 5.828125 -6.796875 6.117188 -7.289062 6.359375 -7.6875 C 6.597656 -8.082031 6.820312 -8.410156 7.03125 -8.671875 C 7.238281 -8.941406 7.460938 -9.164062 7.703125 -9.34375 C 7.828125 -9.4375 7.890625 -9.523438 7.890625 -9.609375 C 7.890625 -9.671875 7.863281 -9.703125 7.8125 -9.703125 C 7.75 -9.703125 7.664062 -9.660156 7.5625 -9.578125 C 7.15625 -9.253906 6.765625 -8.816406 6.390625 -8.265625 C 6.023438 -7.722656 5.632812 -7.070312 5.21875 -6.3125 C 5.195312 -6.257812 5.1875 -6.210938 5.1875 -6.171875 C 5.1875 -6.109375 5.21875 -6.078125 5.28125 -6.078125 C 5.375 -6.078125 5.441406 -6.117188 5.484375 -6.203125 Z M 5.796875 -0.6875 C 5.796875 -0.59375 5.804688 -0.515625 5.828125 -0.453125 C 5.859375 -0.398438 5.894531 -0.375 5.9375 -0.375 C 5.96875 -0.375 6 -0.398438 6.03125 -0.453125 C 6.050781 -0.503906 6.0625 -0.582031 6.0625 -0.6875 C 6.0625 -0.820312 6.09375 -0.96875 6.15625 -1.125 C 6.226562 -1.289062 6.320312 -1.5 6.4375 -1.75 C 6.488281 -1.875 6.515625 -1.945312 6.515625 -1.96875 C 6.515625 -2.039062 6.488281 -2.078125 6.4375 -2.078125 C 6.351562 -2.078125 6.269531 -2.007812 6.1875 -1.875 C 5.925781 -1.351562 5.796875 -0.957031 5.796875 -0.6875 Z M 10.46875 -0.53125 C 10.46875 -0.675781 10.429688 -0.75 10.359375 -0.75 C 10.273438 -0.75 10.234375 -0.632812 10.234375 -0.40625 C 10.234375 -0.113281 10.320312 0.101562 10.5 0.25 C 10.539062 0.289062 10.578125 0.3125 10.609375 0.3125 C 10.691406 0.3125 10.734375 0.265625 10.734375 0.171875 C 10.734375 0.128906 10.71875 0.09375 10.6875 0.0625 C 10.59375 -0.03125 10.53125 -0.113281 10.5 -0.1875 C 10.46875 -0.269531 10.457031 -0.363281 10.46875 -0.46875 Z M 10.46875 -0.53125 "/></g></g></g></g><g fill="#cc007e" fill-opacity="1"><g transform="translate(14.0072, 12.985218)"><g><path d="M 1.5 0.359375 C 1.050781 0.359375 0.679688 0.195312 0.390625 -0.125 C 0.0976562 -0.445312 -0.046875 -0.882812 -0.046875 -1.4375 C -0.046875 -1.914062 0.0195312 -2.398438 0.15625 -2.890625 C 0.300781 -3.378906 0.503906 -3.84375 0.765625 -4.28125 C 1.023438 -4.726562 1.332031 -5.113281 1.6875 -5.4375 C 2.195312 -5.925781 2.773438 -6.171875 3.421875 -6.171875 C 3.671875 -6.171875 3.898438 -6.125 4.109375 -6.03125 C 4.316406 -5.945312 4.476562 -5.820312 4.59375 -5.65625 C 4.820312 -5.34375 4.9375 -4.925781 4.9375 -4.40625 C 4.9375 -4.164062 4.90625 -3.910156 4.84375 -3.640625 C 5.09375 -3.609375 5.328125 -3.660156 5.546875 -3.796875 C 5.773438 -3.941406 5.945312 -4.15625 6.0625 -4.4375 C 6.15625 -4.625 6.265625 -4.734375 6.390625 -4.765625 C 6.523438 -4.804688 6.640625 -4.800781 6.734375 -4.75 C 6.835938 -4.695312 6.890625 -4.609375 6.890625 -4.484375 C 6.890625 -4.378906 6.851562 -4.242188 6.78125 -4.078125 C 6.601562 -3.671875 6.351562 -3.359375 6.03125 -3.140625 C 5.71875 -2.929688 5.347656 -2.828125 4.921875 -2.828125 C 4.878906 -2.828125 4.828125 -2.828125 4.765625 -2.828125 C 4.710938 -2.835938 4.648438 -2.847656 4.578125 -2.859375 C 4.066406 -1.585938 3.484375 -0.691406 2.828125 -0.171875 C 2.398438 0.179688 1.957031 0.359375 1.5 0.359375 Z M 3.234375 -5.6875 C 3.359375 -5.707031 3.421875 -5.757812 3.421875 -5.84375 C 3.421875 -5.925781 3.367188 -5.96875 3.265625 -5.96875 C 3.203125 -5.96875 3.148438 -5.953125 3.109375 -5.921875 C 3.078125 -5.890625 3.0625 -5.851562 3.0625 -5.8125 C 3.0625 -5.71875 3.117188 -5.675781 3.234375 -5.6875 Z M 1.90625 -4.9375 C 2.019531 -5.070312 2.144531 -5.1875 2.28125 -5.28125 C 2.414062 -5.382812 2.554688 -5.472656 2.703125 -5.546875 C 2.796875 -5.578125 2.84375 -5.628906 2.84375 -5.703125 C 2.84375 -5.828125 2.773438 -5.859375 2.640625 -5.796875 C 2.285156 -5.648438 1.972656 -5.425781 1.703125 -5.125 C 1.671875 -5.082031 1.65625 -5.039062 1.65625 -5 C 1.65625 -4.914062 1.695312 -4.875 1.78125 -4.875 C 1.8125 -4.875 1.851562 -4.894531 1.90625 -4.9375 Z M 3.8125 -3.609375 C 3.875 -3.554688 3.925781 -3.53125 3.96875 -3.53125 C 4.039062 -3.53125 4.078125 -3.578125 4.078125 -3.671875 C 4.078125 -3.734375 4.046875 -3.789062 3.984375 -3.84375 C 3.847656 -3.96875 3.734375 -4.125 3.640625 -4.3125 C 3.554688 -4.5 3.507812 -4.679688 3.5 -4.859375 C 3.476562 -5.003906 3.425781 -5.078125 3.34375 -5.078125 C 3.269531 -5.078125 3.234375 -5.007812 3.234375 -4.875 C 3.242188 -4.644531 3.300781 -4.410156 3.40625 -4.171875 C 3.507812 -3.929688 3.644531 -3.742188 3.8125 -3.609375 Z M 1.8125 -0.546875 C 2 -0.546875 2.210938 -0.660156 2.453125 -0.890625 C 2.691406 -1.117188 2.925781 -1.429688 3.15625 -1.828125 C 3.394531 -2.222656 3.613281 -2.671875 3.8125 -3.171875 C 3.5625 -3.347656 3.351562 -3.597656 3.1875 -3.921875 C 3.019531 -4.242188 2.929688 -4.570312 2.921875 -4.90625 C 2.691406 -4.644531 2.460938 -4.316406 2.234375 -3.921875 C 2.015625 -3.523438 1.828125 -3.113281 1.671875 -2.6875 C 1.515625 -2.257812 1.4375 -1.859375 1.4375 -1.484375 C 1.4375 -1.222656 1.472656 -1 1.546875 -0.8125 C 1.609375 -0.632812 1.695312 -0.546875 1.8125 -0.546875 Z M 1.53125 0.09375 C 1.644531 0.09375 1.703125 0.0546875 1.703125 -0.015625 C 1.703125 -0.117188 1.632812 -0.175781 1.5 -0.1875 C 1.019531 -0.195312 0.710938 -0.457031 0.578125 -0.96875 C 0.566406 -1.019531 0.546875 -1.054688 0.515625 -1.078125 C 0.484375 -1.109375 0.457031 -1.125 0.4375 -1.125 C 0.351562 -1.125 0.3125 -1.066406 0.3125 -0.953125 C 0.3125 -0.921875 0.320312 -0.867188 0.34375 -0.796875 C 0.4375 -0.523438 0.582031 -0.3125 0.78125 -0.15625 C 0.976562 0 1.21875 0.0820312 1.5 0.09375 Z M 1.53125 0.09375 "/></g></g></g><g fill="#cc007e" fill-opacity="1"><g transform="translate(19.298078, 12.985218)"><g><path d="M 4.953125 -3.6875 C 5.203125 -3.6875 5.328125 -3.597656 5.328125 -3.421875 C 5.328125 -3.285156 5.273438 -3.082031 5.171875 -2.8125 C 4.742188 -1.726562 4.222656 -0.921875 3.609375 -0.390625 C 2.992188 0.128906 2.367188 0.390625 1.734375 0.390625 C 1.210938 0.390625 0.789062 0.25 0.46875 -0.03125 C 0.15625 -0.320312 0 -0.75 0 -1.3125 C 0 -1.882812 0.117188 -2.640625 0.359375 -3.578125 C 0.546875 -4.335938 0.769531 -5.085938 1.03125 -5.828125 C 1.300781 -6.578125 1.597656 -7.253906 1.921875 -7.859375 C 2.242188 -8.472656 2.578125 -8.953125 2.921875 -9.296875 C 3.109375 -9.484375 3.328125 -9.632812 3.578125 -9.75 C 3.835938 -9.863281 4.085938 -9.921875 4.328125 -9.921875 C 4.648438 -9.921875 4.921875 -9.828125 5.140625 -9.640625 C 5.367188 -9.460938 5.484375 -9.210938 5.484375 -8.890625 C 5.484375 -8.578125 5.382812 -8.21875 5.1875 -7.8125 C 5 -7.40625 4.742188 -6.988281 4.421875 -6.5625 C 4.171875 -6.21875 3.878906 -5.875 3.546875 -5.53125 C 3.222656 -5.195312 2.820312 -4.796875 2.34375 -4.328125 L 1.78125 -3.765625 L 1.671875 -3.328125 C 1.535156 -2.796875 1.441406 -2.394531 1.390625 -2.125 C 1.335938 -1.863281 1.3125 -1.625 1.3125 -1.40625 C 1.3125 -1.113281 1.367188 -0.894531 1.484375 -0.75 C 1.609375 -0.601562 1.800781 -0.53125 2.0625 -0.53125 C 2.445312 -0.53125 2.84375 -0.742188 3.25 -1.171875 C 3.664062 -1.597656 4.0625 -2.238281 4.4375 -3.09375 C 4.4375 -3.125 4.460938 -3.195312 4.515625 -3.3125 C 4.566406 -3.4375 4.628906 -3.53125 4.703125 -3.59375 C 4.773438 -3.65625 4.859375 -3.6875 4.953125 -3.6875 Z M 2.703125 -8.578125 C 2.640625 -8.492188 2.609375 -8.421875 2.609375 -8.359375 C 2.609375 -8.296875 2.632812 -8.265625 2.6875 -8.265625 C 2.789062 -8.265625 2.875 -8.320312 2.9375 -8.4375 C 3.019531 -8.53125 3.085938 -8.613281 3.140625 -8.6875 C 3.203125 -8.757812 3.265625 -8.828125 3.328125 -8.890625 C 3.390625 -8.941406 3.421875 -9 3.421875 -9.0625 C 3.421875 -9.132812 3.382812 -9.171875 3.3125 -9.171875 C 3.25 -9.171875 3.191406 -9.140625 3.140625 -9.078125 C 3.054688 -8.992188 2.976562 -8.910156 2.90625 -8.828125 C 2.84375 -8.742188 2.773438 -8.660156 2.703125 -8.578125 Z M 4.375 -8.921875 C 4.238281 -8.921875 4.078125 -8.816406 3.890625 -8.609375 C 3.710938 -8.398438 3.546875 -8.160156 3.390625 -7.890625 C 3.003906 -7.265625 2.628906 -6.425781 2.265625 -5.375 C 2.523438 -5.644531 2.769531 -5.921875 3 -6.203125 C 3.238281 -6.492188 3.46875 -6.785156 3.6875 -7.078125 C 3.90625 -7.359375 4.101562 -7.660156 4.28125 -7.984375 C 4.46875 -8.304688 4.5625 -8.550781 4.5625 -8.71875 C 4.5625 -8.851562 4.5 -8.921875 4.375 -8.921875 Z M 1.0625 -5.09375 C 1.050781 -5.070312 1.046875 -5.039062 1.046875 -5 C 1.046875 -4.90625 1.082031 -4.859375 1.15625 -4.859375 C 1.226562 -4.859375 1.285156 -4.925781 1.328125 -5.0625 C 1.472656 -5.550781 1.644531 -6.023438 1.84375 -6.484375 C 2.039062 -6.941406 2.269531 -7.390625 2.53125 -7.828125 C 2.550781 -7.859375 2.5625 -7.894531 2.5625 -7.9375 C 2.5625 -8.03125 2.523438 -8.078125 2.453125 -8.078125 C 2.410156 -8.078125 2.351562 -8.023438 2.28125 -7.921875 C 2.019531 -7.492188 1.789062 -7.046875 1.59375 -6.578125 C 1.394531 -6.109375 1.21875 -5.613281 1.0625 -5.09375 Z M 0.8125 -0.140625 C 0.894531 -0.0859375 0.960938 -0.0625 1.015625 -0.0625 C 1.078125 -0.0625 1.109375 -0.0859375 1.109375 -0.140625 C 1.109375 -0.210938 1.050781 -0.28125 0.9375 -0.34375 C 0.769531 -0.445312 0.664062 -0.601562 0.625 -0.8125 C 0.601562 -0.90625 0.550781 -0.953125 0.46875 -0.953125 C 0.394531 -0.953125 0.359375 -0.898438 0.359375 -0.796875 C 0.378906 -0.535156 0.53125 -0.316406 0.8125 -0.140625 Z M 0.8125 -0.140625 "/></g></g></g><g fill="#cc007e" fill-opacity="1"><g transform="translate(23.505782, 12.985218)"><g><path d="M 4.953125 -3.6875 C 5.203125 -3.6875 5.328125 -3.597656 5.328125 -3.421875 C 5.328125 -3.285156 5.273438 -3.082031 5.171875 -2.8125 C 4.742188 -1.726562 4.222656 -0.921875 3.609375 -0.390625 C 2.992188 0.128906 2.367188 0.390625 1.734375 0.390625 C 1.210938 0.390625 0.789062 0.25 0.46875 -0.03125 C 0.15625 -0.320312 0 -0.75 0 -1.3125 C 0 -1.882812 0.117188 -2.640625 0.359375 -3.578125 C 0.546875 -4.335938 0.769531 -5.085938 1.03125 -5.828125 C 1.300781 -6.578125 1.597656 -7.253906 1.921875 -7.859375 C 2.242188 -8.472656 2.578125 -8.953125 2.921875 -9.296875 C 3.109375 -9.484375 3.328125 -9.632812 3.578125 -9.75 C 3.835938 -9.863281 4.085938 -9.921875 4.328125 -9.921875 C 4.648438 -9.921875 4.921875 -9.828125 5.140625 -9.640625 C 5.367188 -9.460938 5.484375 -9.210938 5.484375 -8.890625 C 5.484375 -8.578125 5.382812 -8.21875 5.1875 -7.8125 C 5 -7.40625 4.742188 -6.988281 4.421875 -6.5625 C 4.171875 -6.21875 3.878906 -5.875 3.546875 -5.53125 C 3.222656 -5.195312 2.820312 -4.796875 2.34375 -4.328125 L 1.78125 -3.765625 L 1.671875 -3.328125 C 1.535156 -2.796875 1.441406 -2.394531 1.390625 -2.125 C 1.335938 -1.863281 1.3125 -1.625 1.3125 -1.40625 C 1.3125 -1.113281 1.367188 -0.894531 1.484375 -0.75 C 1.609375 -0.601562 1.800781 -0.53125 2.0625 -0.53125 C 2.445312 -0.53125 2.84375 -0.742188 3.25 -1.171875 C 3.664062 -1.597656 4.0625 -2.238281 4.4375 -3.09375 C 4.4375 -3.125 4.460938 -3.195312 4.515625 -3.3125 C 4.566406 -3.4375 4.628906 -3.53125 4.703125 -3.59375 C 4.773438 -3.65625 4.859375 -3.6875 4.953125 -3.6875 Z M 2.703125 -8.578125 C 2.640625 -8.492188 2.609375 -8.421875 2.609375 -8.359375 C 2.609375 -8.296875 2.632812 -8.265625 2.6875 -8.265625 C 2.789062 -8.265625 2.875 -8.320312 2.9375 -8.4375 C 3.019531 -8.53125 3.085938 -8.613281 3.140625 -8.6875 C 3.203125 -8.757812 3.265625 -8.828125 3.328125 -8.890625 C 3.390625 -8.941406 3.421875 -9 3.421875 -9.0625 C 3.421875 -9.132812 3.382812 -9.171875 3.3125 -9.171875 C 3.25 -9.171875 3.191406 -9.140625 3.140625 -9.078125 C 3.054688 -8.992188 2.976562 -8.910156 2.90625 -8.828125 C 2.84375 -8.742188 2.773438 -8.660156 2.703125 -8.578125 Z M 4.375 -8.921875 C 4.238281 -8.921875 4.078125 -8.816406 3.890625 -8.609375 C 3.710938 -8.398438 3.546875 -8.160156 3.390625 -7.890625 C 3.003906 -7.265625 2.628906 -6.425781 2.265625 -5.375 C 2.523438 -5.644531 2.769531 -5.921875 3 -6.203125 C 3.238281 -6.492188 3.46875 -6.785156 3.6875 -7.078125 C 3.90625 -7.359375 4.101562 -7.660156 4.28125 -7.984375 C 4.46875 -8.304688 4.5625 -8.550781 4.5625 -8.71875 C 4.5625 -8.851562 4.5 -8.921875 4.375 -8.921875 Z M 1.0625 -5.09375 C 1.050781 -5.070312 1.046875 -5.039062 1.046875 -5 C 1.046875 -4.90625 1.082031 -4.859375 1.15625 -4.859375 C 1.226562 -4.859375 1.285156 -4.925781 1.328125 -5.0625 C 1.472656 -5.550781 1.644531 -6.023438 1.84375 -6.484375 C 2.039062 -6.941406 2.269531 -7.390625 2.53125 -7.828125 C 2.550781 -7.859375 2.5625 -7.894531 2.5625 -7.9375 C 2.5625 -8.03125 2.523438 -8.078125 2.453125 -8.078125 C 2.410156 -8.078125 2.351562 -8.023438 2.28125 -7.921875 C 2.019531 -7.492188 1.789062 -7.046875 1.59375 -6.578125 C 1.394531 -6.109375 1.21875 -5.613281 1.0625 -5.09375 Z M 0.8125 -0.140625 C 0.894531 -0.0859375 0.960938 -0.0625 1.015625 -0.0625 C 1.078125 -0.0625 1.109375 -0.0859375 1.109375 -0.140625 C 1.109375 -0.210938 1.050781 -0.28125 0.9375 -0.34375 C 0.769531 -0.445312 0.664062 -0.601562 0.625 -0.8125 C 0.601562 -0.90625 0.550781 -0.953125 0.46875 -0.953125 C 0.394531 -0.953125 0.359375 -0.898438 0.359375 -0.796875 C 0.378906 -0.535156 0.53125 -0.316406 0.8125 -0.140625 Z M 0.8125 -0.140625 "/></g></g></g><g clip-path="url(#3e62aa202e)"><g fill="#cc007e" fill-opacity="1"><g transform="translate(27.713489, 12.985218)"><g><path d="M 5.171875 -6.0625 C 5.347656 -6.0625 5.5 -6.019531 5.625 -5.9375 C 5.75 -5.851562 5.8125 -5.742188 5.8125 -5.609375 C 5.8125 -5.492188 5.78125 -5.394531 5.71875 -5.3125 C 5.613281 -5.125 5.515625 -4.929688 5.421875 -4.734375 C 5.328125 -4.535156 5.226562 -4.304688 5.125 -4.046875 C 5.019531 -3.796875 4.894531 -3.472656 4.75 -3.078125 C 4.269531 -1.765625 3.835938 -0.65625 3.453125 0.25 C 3.878906 0.332031 4.253906 0.488281 4.578125 0.71875 C 4.898438 0.945312 5.0625 1.273438 5.0625 1.703125 C 5.0625 1.859375 5.019531 1.988281 4.9375 2.09375 C 4.851562 2.195312 4.753906 2.25 4.640625 2.25 C 4.523438 2.25 4.429688 2.203125 4.359375 2.109375 C 4.285156 2.023438 4.25 1.921875 4.25 1.796875 C 4.25 1.597656 4.164062 1.4375 4 1.3125 C 3.832031 1.1875 3.5625 1.085938 3.1875 1.015625 C 2.71875 2.023438 2.128906 2.785156 1.421875 3.296875 C 0.910156 3.640625 0.3125 3.8125 -0.375 3.8125 C -0.851562 3.8125 -1.253906 3.707031 -1.578125 3.5 C -1.910156 3.289062 -2.078125 2.992188 -2.078125 2.609375 C -2.078125 2.078125 -1.816406 1.609375 -1.296875 1.203125 C -0.773438 0.796875 -0.0664062 0.5 0.828125 0.3125 L 0.734375 0.3125 C 0.367188 0.3125 0.0664062 0.234375 -0.171875 0.078125 C -0.421875 -0.078125 -0.546875 -0.300781 -0.546875 -0.59375 C -0.546875 -1.175781 -0.4375 -1.75 -0.21875 -2.3125 C -0.0078125 -2.882812 0.273438 -3.535156 0.640625 -4.265625 C 0.859375 -4.671875 1 -4.960938 1.0625 -5.140625 C 1.070312 -5.179688 1.085938 -5.238281 1.109375 -5.3125 C 1.128906 -5.394531 1.148438 -5.488281 1.171875 -5.59375 C 1.222656 -5.863281 1.285156 -6.054688 1.359375 -6.171875 C 1.441406 -6.285156 1.609375 -6.34375 1.859375 -6.34375 C 2.140625 -6.34375 2.34375 -6.265625 2.46875 -6.109375 C 2.601562 -5.960938 2.671875 -5.765625 2.671875 -5.515625 C 2.671875 -5.304688 2.628906 -5.09375 2.546875 -4.875 C 2.460938 -4.664062 2.316406 -4.363281 2.109375 -3.96875 C 1.816406 -3.375 1.570312 -2.835938 1.375 -2.359375 C 1.175781 -1.878906 1.054688 -1.425781 1.015625 -1 C 1.003906 -0.957031 1 -0.914062 1 -0.875 C 1 -0.832031 1 -0.785156 1 -0.734375 C 1 -0.597656 1.035156 -0.53125 1.109375 -0.53125 C 1.179688 -0.53125 1.3125 -0.582031 1.5 -0.6875 C 2 -0.945312 2.40625 -1.265625 2.71875 -1.640625 C 3.03125 -2.023438 3.273438 -2.554688 3.453125 -3.234375 C 3.585938 -3.785156 3.710938 -4.25 3.828125 -4.625 C 3.953125 -5.007812 4.097656 -5.335938 4.265625 -5.609375 C 4.367188 -5.753906 4.503906 -5.863281 4.671875 -5.9375 C 4.835938 -6.019531 5.003906 -6.0625 5.171875 -6.0625 Z M 1.453125 -5.0625 C 1.441406 -5.03125 1.4375 -4.992188 1.4375 -4.953125 C 1.4375 -4.867188 1.472656 -4.828125 1.546875 -4.828125 C 1.617188 -4.828125 1.675781 -4.878906 1.71875 -4.984375 C 1.78125 -5.140625 1.828125 -5.273438 1.859375 -5.390625 C 1.890625 -5.503906 1.910156 -5.601562 1.921875 -5.6875 L 1.921875 -5.71875 C 1.921875 -5.851562 1.875 -5.921875 1.78125 -5.921875 C 1.707031 -5.921875 1.660156 -5.859375 1.640625 -5.734375 C 1.617188 -5.597656 1.59375 -5.472656 1.5625 -5.359375 C 1.53125 -5.242188 1.492188 -5.144531 1.453125 -5.0625 Z M 5.125 -5.5 C 5.207031 -5.519531 5.25 -5.570312 5.25 -5.65625 C 5.25 -5.757812 5.191406 -5.800781 5.078125 -5.78125 C 4.835938 -5.71875 4.648438 -5.601562 4.515625 -5.4375 C 4.378906 -5.269531 4.257812 -5.03125 4.15625 -4.71875 L 4.125 -4.59375 C 4.125 -4.507812 4.15625 -4.46875 4.21875 -4.46875 C 4.300781 -4.46875 4.367188 -4.535156 4.421875 -4.671875 C 4.515625 -4.941406 4.609375 -5.132812 4.703125 -5.25 C 4.796875 -5.375 4.9375 -5.457031 5.125 -5.5 Z M 1.4375 0.21875 C 1.8125 0.164062 2.207031 0.140625 2.625 0.140625 C 2.71875 -0.078125 2.820312 -0.414062 2.9375 -0.875 C 2.75 -0.664062 2.5625 -0.484375 2.375 -0.328125 C 2.1875 -0.171875 2.003906 -0.0390625 1.828125 0.0625 C 1.703125 0.132812 1.570312 0.1875 1.4375 0.21875 Z M 0.71875 0.015625 C 0.875 0.015625 0.953125 -0.0351562 0.953125 -0.140625 C 0.953125 -0.171875 0.929688 -0.203125 0.890625 -0.234375 C 0.859375 -0.273438 0.804688 -0.296875 0.734375 -0.296875 C 0.453125 -0.296875 0.28125 -0.390625 0.21875 -0.578125 C 0.1875 -0.703125 0.117188 -0.765625 0.015625 -0.765625 C -0.0664062 -0.765625 -0.109375 -0.710938 -0.109375 -0.609375 C -0.109375 -0.546875 -0.09375 -0.484375 -0.0625 -0.421875 C 0.0195312 -0.273438 0.128906 -0.164062 0.265625 -0.09375 C 0.410156 -0.0195312 0.5625 0.015625 0.71875 0.015625 Z M 0.078125 2.953125 C 0.472656 2.953125 0.859375 2.78125 1.234375 2.4375 C 1.609375 2.101562 1.957031 1.617188 2.28125 0.984375 C 1.925781 1.035156 1.550781 1.140625 1.15625 1.296875 C 0.757812 1.453125 0.421875 1.648438 0.140625 1.890625 C -0.148438 2.117188 -0.296875 2.382812 -0.296875 2.6875 C -0.296875 2.863281 -0.171875 2.953125 0.078125 2.953125 Z M -0.359375 3.5 C -0.242188 3.5 -0.1875 3.453125 -0.1875 3.359375 C -0.1875 3.328125 -0.203125 3.289062 -0.234375 3.25 C -0.273438 3.21875 -0.320312 3.207031 -0.375 3.21875 C -0.707031 3.238281 -0.96875 3.179688 -1.15625 3.046875 C -1.34375 2.921875 -1.4375 2.738281 -1.4375 2.5 C -1.4375 2.34375 -1.484375 2.265625 -1.578125 2.265625 C -1.671875 2.265625 -1.71875 2.34375 -1.71875 2.5 C -1.71875 2.820312 -1.59375 3.070312 -1.34375 3.25 C -1.09375 3.4375 -0.765625 3.519531 -0.359375 3.5 Z M -0.359375 3.5 "/></g></g></g></g></g></g><g transform="matrix(1, 0, 0, 1, 6, 20)"><g clip-path="url(#b5df689880)"><g clip-path="url(#4bc07446d1)"><g fill="#000000" fill-opacity="1"><g transform="translate(0.716947, 4.229648)"><g><path d="M 0.265625 -2.9375 C 0.265625 -2.957031 0.328125 -2.96875 0.453125 -2.96875 C 0.535156 -2.96875 0.582031 -2.960938 0.59375 -2.953125 C 0.613281 -2.941406 0.632812 -2.90625 0.65625 -2.84375 C 0.664062 -2.800781 0.675781 -2.691406 0.6875 -2.515625 C 0.707031 -2.328125 0.726562 -2.128906 0.75 -1.921875 C 0.757812 -1.710938 0.765625 -1.597656 0.765625 -1.578125 C 0.773438 -1.535156 0.785156 -1.484375 0.796875 -1.421875 C 0.816406 -1.441406 0.863281 -1.484375 0.9375 -1.546875 C 1.070312 -1.691406 1.164062 -1.796875 1.21875 -1.859375 C 1.257812 -1.898438 1.3125 -1.957031 1.375 -2.03125 C 1.394531 -2.03125 1.441406 -2.015625 1.515625 -1.984375 C 1.578125 -1.972656 1.617188 -1.957031 1.640625 -1.9375 C 1.660156 -1.925781 1.671875 -1.90625 1.671875 -1.875 C 1.671875 -1.8125 1.625 -1.710938 1.53125 -1.578125 C 1.445312 -1.429688 1.347656 -1.296875 1.234375 -1.171875 C 1.179688 -1.128906 1.113281 -1.0625 1.03125 -0.96875 C 1.039062 -0.957031 1.078125 -0.929688 1.140625 -0.890625 C 1.222656 -0.835938 1.3125 -0.757812 1.40625 -0.65625 C 1.445312 -0.613281 1.503906 -0.550781 1.578125 -0.46875 L 1.453125 -0.375 C 1.367188 -0.300781 1.316406 -0.265625 1.296875 -0.265625 C 1.265625 -0.265625 1.21875 -0.296875 1.15625 -0.359375 C 0.976562 -0.503906 0.863281 -0.578125 0.8125 -0.578125 C 0.789062 -0.578125 0.78125 -0.539062 0.78125 -0.46875 C 0.78125 -0.414062 0.765625 -0.347656 0.734375 -0.265625 C 0.710938 -0.179688 0.691406 -0.140625 0.671875 -0.140625 C 0.671875 -0.140625 0.613281 -0.15625 0.5 -0.1875 C 0.46875 -0.195312 0.414062 -0.210938 0.34375 -0.234375 C 0.34375 -0.265625 0.335938 -0.328125 0.328125 -0.421875 C 0.304688 -0.523438 0.289062 -0.59375 0.28125 -0.625 C 0.269531 -0.65625 0.242188 -0.671875 0.203125 -0.671875 C 0.160156 -0.679688 0.125 -0.726562 0.09375 -0.8125 C 0.0703125 -0.863281 0.0625 -0.898438 0.0625 -0.921875 C 0.0625 -0.941406 0.0859375 -0.972656 0.140625 -1.015625 C 0.160156 -1.023438 0.1875 -1.046875 0.21875 -1.078125 C 0.21875 -1.140625 0.207031 -1.257812 0.1875 -1.4375 C 0.164062 -1.582031 0.15625 -1.738281 0.15625 -1.90625 C 0.15625 -2.132812 0.164062 -2.351562 0.1875 -2.5625 C 0.207031 -2.769531 0.234375 -2.894531 0.265625 -2.9375 Z M 0.265625 -2.9375 "/></g></g><g transform="translate(2.461215, 4.229648)"><g><path d="M 0.171875 -1.921875 C 0.179688 -1.941406 0.226562 -1.953125 0.3125 -1.953125 L 0.359375 -1.953125 C 0.441406 -1.953125 0.488281 -1.945312 0.5 -1.9375 C 0.519531 -1.925781 0.535156 -1.898438 0.546875 -1.859375 C 0.554688 -1.828125 0.5625 -1.71875 0.5625 -1.53125 C 0.5625 -0.9375 0.546875 -0.515625 0.515625 -0.265625 C 0.492188 -0.160156 0.476562 -0.0976562 0.46875 -0.078125 C 0.445312 -0.046875 0.414062 -0.0234375 0.375 -0.015625 C 0.300781 0.00390625 0.253906 0.015625 0.234375 0.015625 C 0.191406 0.015625 0.164062 -0.00390625 0.15625 -0.046875 C 0.144531 -0.0859375 0.128906 -0.175781 0.109375 -0.3125 C 0.078125 -0.5 0.0625 -0.707031 0.0625 -0.9375 C 0.0625 -1.175781 0.0703125 -1.390625 0.09375 -1.578125 C 0.113281 -1.765625 0.140625 -1.878906 0.171875 -1.921875 Z M 0.203125 -2.71875 C 0.222656 -2.738281 0.273438 -2.75 0.359375 -2.75 C 0.429688 -2.75 0.484375 -2.738281 0.515625 -2.71875 C 0.546875 -2.6875 0.5625 -2.601562 0.5625 -2.46875 C 0.5625 -2.414062 0.554688 -2.375 0.546875 -2.34375 C 0.523438 -2.300781 0.484375 -2.28125 0.421875 -2.28125 C 0.410156 -2.28125 0.398438 -2.28125 0.390625 -2.28125 L 0.34375 -2.28125 C 0.238281 -2.28125 0.1875 -2.300781 0.1875 -2.34375 C 0.175781 -2.363281 0.171875 -2.410156 0.171875 -2.484375 L 0.171875 -2.546875 C 0.171875 -2.648438 0.179688 -2.707031 0.203125 -2.71875 Z M 0.203125 -2.71875 "/></g></g><g transform="translate(3.113156, 4.229648)"><g><path d="M 0.515625 -2.96875 C 0.523438 -2.988281 0.539062 -3.03125 0.5625 -3.09375 C 0.59375 -3.09375 0.648438 -3.085938 0.734375 -3.078125 C 0.816406 -3.066406 0.878906 -3.054688 0.921875 -3.046875 C 0.941406 -3.023438 0.953125 -2.859375 0.953125 -2.546875 L 0.953125 -2.0625 C 0.972656 -2.0625 1.023438 -2.066406 1.109375 -2.078125 C 1.171875 -2.078125 1.207031 -2.078125 1.21875 -2.078125 C 1.25 -2.078125 1.269531 -2.070312 1.28125 -2.0625 C 1.289062 -2.050781 1.304688 -2.023438 1.328125 -1.984375 C 1.367188 -1.910156 1.390625 -1.851562 1.390625 -1.8125 C 1.390625 -1.78125 1.363281 -1.753906 1.3125 -1.734375 C 1.269531 -1.710938 1.1875 -1.6875 1.0625 -1.65625 L 0.96875 -1.65625 L 0.96875 -1.109375 C 0.96875 -0.578125 0.9375 -0.21875 0.875 -0.03125 C 0.863281 0.0078125 0.847656 0.0390625 0.828125 0.0625 C 0.796875 0.09375 0.75 0.117188 0.6875 0.140625 C 0.59375 0.179688 0.535156 0.203125 0.515625 0.203125 C 0.492188 0.203125 0.476562 0.175781 0.46875 0.125 C 0.445312 0.0625 0.414062 -0.046875 0.375 -0.203125 C 0.332031 -0.347656 0.304688 -0.613281 0.296875 -1 C 0.285156 -1.25 0.273438 -1.398438 0.265625 -1.453125 C 0.253906 -1.515625 0.238281 -1.546875 0.21875 -1.546875 C 0.1875 -1.546875 0.148438 -1.59375 0.109375 -1.6875 C 0.078125 -1.769531 0.0625 -1.816406 0.0625 -1.828125 C 0.0625 -1.867188 0.101562 -1.90625 0.1875 -1.9375 C 0.238281 -1.957031 0.273438 -1.976562 0.296875 -2 C 0.304688 -2.007812 0.3125 -2.03125 0.3125 -2.0625 C 0.3125 -2.125 0.335938 -2.273438 0.390625 -2.515625 C 0.453125 -2.753906 0.492188 -2.90625 0.515625 -2.96875 Z M 0.515625 -2.96875 "/></g></g><g transform="translate(4.576787, 4.229648)"><g><path d="M 0.984375 -2.234375 C 1.078125 -2.285156 1.144531 -2.3125 1.1875 -2.3125 C 1.238281 -2.3125 1.289062 -2.273438 1.34375 -2.203125 C 1.394531 -2.140625 1.421875 -2.09375 1.421875 -2.0625 C 1.421875 -2.039062 1.351562 -1.957031 1.21875 -1.8125 C 0.957031 -1.507812 0.785156 -1.28125 0.703125 -1.125 C 0.679688 -1.0625 0.644531 -0.941406 0.59375 -0.765625 C 0.539062 -0.578125 0.515625 -0.457031 0.515625 -0.40625 C 0.515625 -0.375 0.566406 -0.351562 0.671875 -0.34375 C 0.691406 -0.34375 0.71875 -0.34375 0.75 -0.34375 C 0.820312 -0.34375 0.890625 -0.363281 0.953125 -0.40625 C 1.023438 -0.445312 1.101562 -0.519531 1.1875 -0.625 C 1.21875 -0.65625 1.265625 -0.703125 1.328125 -0.765625 C 1.359375 -0.765625 1.410156 -0.757812 1.484375 -0.75 C 1.597656 -0.738281 1.660156 -0.71875 1.671875 -0.6875 C 1.671875 -0.6875 1.671875 -0.679688 1.671875 -0.671875 C 1.671875 -0.628906 1.644531 -0.566406 1.59375 -0.484375 C 1.53125 -0.398438 1.472656 -0.328125 1.421875 -0.265625 C 1.359375 -0.210938 1.257812 -0.15625 1.125 -0.09375 C 1.019531 -0.0390625 0.925781 -0.015625 0.84375 -0.015625 C 0.789062 -0.015625 0.742188 -0.015625 0.703125 -0.015625 C 0.535156 -0.0234375 0.410156 -0.0625 0.328125 -0.125 C 0.148438 -0.238281 0.0625 -0.425781 0.0625 -0.6875 C 0.0625 -0.925781 0.132812 -1.191406 0.28125 -1.484375 C 0.34375 -1.617188 0.445312 -1.765625 0.59375 -1.921875 C 0.738281 -2.078125 0.867188 -2.179688 0.984375 -2.234375 Z M 0.984375 -2.234375 "/></g></g><g transform="translate(6.32969, 4.229648)"><g><path d="M 0.171875 -2.953125 C 0.179688 -2.984375 0.195312 -3.039062 0.21875 -3.125 L 0.40625 -3.125 C 0.5 -3.125 0.550781 -3.101562 0.5625 -3.0625 C 0.59375 -3.019531 0.613281 -2.835938 0.625 -2.515625 L 0.625 -2.359375 C 0.625 -1.890625 0.632812 -1.648438 0.65625 -1.640625 C 0.65625 -1.628906 0.660156 -1.625 0.671875 -1.625 C 0.691406 -1.625 0.726562 -1.664062 0.78125 -1.75 C 0.9375 -1.96875 1.09375 -2.078125 1.25 -2.078125 C 1.34375 -2.078125 1.425781 -2.039062 1.5 -1.96875 C 1.570312 -1.894531 1.628906 -1.789062 1.671875 -1.65625 C 1.710938 -1.519531 1.734375 -1.351562 1.734375 -1.15625 C 1.734375 -1.03125 1.734375 -0.914062 1.734375 -0.8125 C 1.722656 -0.394531 1.710938 -0.160156 1.703125 -0.109375 C 1.679688 -0.078125 1.648438 -0.0625 1.609375 -0.0625 L 1.359375 -0.0625 C 1.359375 -0.113281 1.351562 -0.21875 1.34375 -0.375 C 1.332031 -0.519531 1.320312 -0.769531 1.3125 -1.125 C 1.3125 -1.507812 1.289062 -1.703125 1.25 -1.703125 C 1.21875 -1.691406 1.132812 -1.578125 1 -1.359375 C 0.875 -1.140625 0.796875 -0.984375 0.765625 -0.890625 C 0.734375 -0.785156 0.71875 -0.632812 0.71875 -0.4375 C 0.71875 -0.257812 0.707031 -0.148438 0.6875 -0.109375 C 0.675781 -0.078125 0.628906 -0.0390625 0.546875 0 C 0.460938 0.0507812 0.410156 0.078125 0.390625 0.078125 C 0.367188 0.078125 0.332031 0.00390625 0.28125 -0.140625 C 0.226562 -0.285156 0.1875 -0.425781 0.15625 -0.5625 C 0.113281 -0.769531 0.0820312 -1.109375 0.0625 -1.578125 C 0.0625 -1.660156 0.0625 -1.78125 0.0625 -1.9375 C 0.0625 -2.382812 0.0976562 -2.722656 0.171875 -2.953125 Z M 0.171875 -2.953125 "/></g></g><g transform="translate(8.13872, 4.229648)"><g><path d="M 1.109375 -1.8125 C 1.097656 -1.882812 1.085938 -1.929688 1.078125 -1.953125 C 1.066406 -1.972656 1.039062 -1.984375 1 -1.984375 C 0.925781 -1.984375 0.847656 -1.941406 0.765625 -1.859375 C 0.671875 -1.765625 0.609375 -1.664062 0.578125 -1.5625 C 0.535156 -1.457031 0.515625 -1.394531 0.515625 -1.375 C 0.515625 -1.363281 0.566406 -1.359375 0.671875 -1.359375 C 0.785156 -1.359375 0.882812 -1.390625 0.96875 -1.453125 C 1.039062 -1.503906 1.082031 -1.539062 1.09375 -1.5625 C 1.113281 -1.59375 1.125 -1.628906 1.125 -1.671875 C 1.125 -1.679688 1.117188 -1.726562 1.109375 -1.8125 Z M 0.703125 -2.3125 C 0.796875 -2.351562 0.910156 -2.375 1.046875 -2.375 C 1.171875 -2.375 1.265625 -2.351562 1.328125 -2.3125 C 1.472656 -2.207031 1.546875 -2.023438 1.546875 -1.765625 C 1.546875 -1.578125 1.515625 -1.4375 1.453125 -1.34375 C 1.390625 -1.238281 1.273438 -1.144531 1.109375 -1.0625 C 0.984375 -1 0.847656 -0.96875 0.703125 -0.96875 C 0.648438 -0.957031 0.578125 -0.953125 0.484375 -0.953125 L 0.484375 -0.796875 C 0.484375 -0.660156 0.523438 -0.5625 0.609375 -0.5 C 0.703125 -0.425781 0.832031 -0.390625 1 -0.390625 L 1.046875 -0.390625 C 1.160156 -0.390625 1.238281 -0.40625 1.28125 -0.4375 C 1.300781 -0.457031 1.320312 -0.46875 1.34375 -0.46875 C 1.363281 -0.46875 1.40625 -0.429688 1.46875 -0.359375 C 1.488281 -0.328125 1.523438 -0.28125 1.578125 -0.21875 C 1.554688 -0.207031 1.53125 -0.179688 1.5 -0.140625 C 1.445312 -0.078125 1.382812 -0.0234375 1.3125 0.015625 C 1.25 0.0546875 1.191406 0.078125 1.140625 0.078125 C 1.117188 0.078125 1.082031 0.0703125 1.03125 0.0625 C 0.84375 0.0390625 0.660156 -0.0234375 0.484375 -0.140625 C 0.304688 -0.242188 0.1875 -0.367188 0.125 -0.515625 C 0.0820312 -0.578125 0.0625 -0.722656 0.0625 -0.953125 C 0.0625 -1.117188 0.078125 -1.253906 0.109375 -1.359375 C 0.140625 -1.578125 0.207031 -1.769531 0.3125 -1.9375 C 0.425781 -2.101562 0.554688 -2.226562 0.703125 -2.3125 Z M 0.703125 -2.3125 "/></g></g><g transform="translate(9.792321, 4.229648)"><g><path d="M 1.359375 -2.0625 C 1.453125 -2.113281 1.53125 -2.140625 1.59375 -2.140625 C 1.601562 -2.140625 1.632812 -2.132812 1.6875 -2.125 C 1.800781 -2.113281 1.878906 -2.09375 1.921875 -2.0625 C 1.960938 -2.019531 2.003906 -1.9375 2.046875 -1.8125 C 2.109375 -1.613281 2.140625 -1.269531 2.140625 -0.78125 C 2.140625 -0.601562 2.128906 -0.453125 2.109375 -0.328125 C 2.109375 -0.265625 2.097656 -0.164062 2.078125 -0.03125 C 2.054688 -0.03125 2.003906 -0.0234375 1.921875 -0.015625 L 1.875 -0.015625 C 1.863281 -0.015625 1.851562 -0.015625 1.84375 -0.015625 C 1.8125 -0.015625 1.789062 -0.0195312 1.78125 -0.03125 C 1.769531 -0.03125 1.765625 -0.0390625 1.765625 -0.0625 C 1.765625 -0.101562 1.742188 -0.28125 1.703125 -0.59375 C 1.671875 -0.914062 1.65625 -1.1875 1.65625 -1.40625 C 1.65625 -1.550781 1.65625 -1.644531 1.65625 -1.6875 C 1.65625 -1.726562 1.644531 -1.753906 1.625 -1.765625 C 1.59375 -1.773438 1.5625 -1.769531 1.53125 -1.75 C 1.457031 -1.6875 1.328125 -1.460938 1.140625 -1.078125 C 0.953125 -0.691406 0.835938 -0.40625 0.796875 -0.21875 C 0.753906 -0.0625 0.726562 0.0195312 0.71875 0.03125 C 0.71875 0.03125 0.671875 0.0390625 0.578125 0.0625 C 0.566406 0.0625 0.550781 0.0625 0.53125 0.0625 C 0.507812 0.0703125 0.5 0.078125 0.5 0.078125 C 0.457031 0.078125 0.429688 0.0546875 0.421875 0.015625 C 0.398438 -0.015625 0.351562 -0.117188 0.28125 -0.296875 C 0.21875 -0.453125 0.164062 -0.644531 0.125 -0.875 C 0.0820312 -1.113281 0.0625 -1.332031 0.0625 -1.53125 C 0.0625 -1.632812 0.0703125 -1.726562 0.09375 -1.8125 C 0.113281 -1.9375 0.128906 -2.003906 0.140625 -2.015625 C 0.148438 -2.023438 0.1875 -2.03125 0.25 -2.03125 C 0.394531 -2.03125 0.476562 -2.019531 0.5 -2 C 0.519531 -1.96875 0.5625 -1.71875 0.625 -1.25 C 0.625 -1.207031 0.628906 -1.144531 0.640625 -1.0625 C 0.660156 -1.101562 0.703125 -1.179688 0.765625 -1.296875 C 0.859375 -1.484375 0.957031 -1.644531 1.0625 -1.78125 C 1.164062 -1.914062 1.265625 -2.007812 1.359375 -2.0625 Z M 1.359375 -2.0625 "/></g></g></g></g></g></g><g transform="matrix(1, 0, 0, 1, 18, 20)"><g clip-path="url(#9484f23d52)"><g clip-path="url(#2f6436174e)"><g fill="#0097b2" fill-opacity="1"><g transform="translate(0.729729, 4.229648)"><g><path d="M 1.0625 -1.5 C 1.0625 -1.519531 1.046875 -1.550781 1.015625 -1.59375 C 1.003906 -1.613281 0.992188 -1.625 0.984375 -1.625 C 0.960938 -1.625 0.890625 -1.5625 0.765625 -1.4375 C 0.628906 -1.289062 0.550781 -1.1875 0.53125 -1.125 C 0.507812 -1.070312 0.5 -0.945312 0.5 -0.75 C 0.5 -0.53125 0.519531 -0.421875 0.5625 -0.421875 C 0.59375 -0.421875 0.644531 -0.460938 0.71875 -0.546875 C 0.78125 -0.597656 0.820312 -0.65625 0.84375 -0.71875 C 0.863281 -0.769531 0.898438 -0.890625 0.953125 -1.078125 C 0.972656 -1.140625 1.007812 -1.28125 1.0625 -1.5 Z M 1.265625 -2.875 C 1.273438 -2.914062 1.285156 -2.941406 1.296875 -2.953125 C 1.316406 -2.960938 1.363281 -2.96875 1.4375 -2.96875 C 1.507812 -2.96875 1.554688 -2.960938 1.578125 -2.953125 C 1.597656 -2.941406 1.625 -2.914062 1.65625 -2.875 C 1.738281 -2.738281 1.78125 -2.378906 1.78125 -1.796875 C 1.78125 -1.585938 1.78125 -1.414062 1.78125 -1.28125 C 1.757812 -0.632812 1.742188 -0.285156 1.734375 -0.234375 C 1.722656 -0.191406 1.707031 -0.164062 1.6875 -0.15625 C 1.664062 -0.132812 1.617188 -0.113281 1.546875 -0.09375 C 1.472656 -0.0703125 1.421875 -0.0625 1.390625 -0.0625 C 1.390625 -0.0625 1.382812 -0.0625 1.375 -0.0625 C 1.375 -0.0625 1.367188 -0.109375 1.359375 -0.203125 C 1.335938 -0.296875 1.320312 -0.382812 1.3125 -0.46875 C 1.300781 -0.5625 1.289062 -0.609375 1.28125 -0.609375 C 1.269531 -0.597656 1.234375 -0.539062 1.171875 -0.4375 C 1.109375 -0.320312 1.015625 -0.234375 0.890625 -0.171875 C 0.773438 -0.0859375 0.660156 -0.046875 0.546875 -0.046875 C 0.492188 -0.046875 0.441406 -0.0546875 0.390625 -0.078125 C 0.304688 -0.117188 0.242188 -0.175781 0.203125 -0.25 C 0.160156 -0.332031 0.128906 -0.453125 0.109375 -0.609375 C 0.078125 -0.753906 0.0625 -0.863281 0.0625 -0.9375 C 0.0625 -1.082031 0.0976562 -1.222656 0.171875 -1.359375 C 0.253906 -1.523438 0.382812 -1.679688 0.5625 -1.828125 C 0.75 -1.972656 0.898438 -2.046875 1.015625 -2.046875 C 1.035156 -2.046875 1.050781 -2.039062 1.0625 -2.03125 C 1.09375 -2.03125 1.109375 -2.03125 1.109375 -2.03125 C 1.140625 -2.03125 1.164062 -2.070312 1.1875 -2.15625 C 1.21875 -2.257812 1.234375 -2.382812 1.234375 -2.53125 C 1.242188 -2.644531 1.253906 -2.757812 1.265625 -2.875 Z M 1.265625 -2.875 "/></g></g><g transform="translate(2.581934, 4.229648)"><g><path d="M 0.875 -1.34375 C 0.957031 -1.582031 1 -1.742188 1 -1.828125 C 1 -1.847656 0.992188 -1.882812 0.984375 -1.9375 C 0.960938 -1.914062 0.921875 -1.867188 0.859375 -1.796875 C 0.753906 -1.679688 0.691406 -1.597656 0.671875 -1.546875 C 0.609375 -1.429688 0.554688 -1.285156 0.515625 -1.109375 C 0.460938 -0.929688 0.4375 -0.789062 0.4375 -0.6875 C 0.4375 -0.613281 0.453125 -0.578125 0.484375 -0.578125 C 0.515625 -0.578125 0.570312 -0.65625 0.65625 -0.8125 C 0.738281 -0.957031 0.8125 -1.132812 0.875 -1.34375 Z M 0.78125 -2.25 C 0.832031 -2.289062 0.972656 -2.3125 1.203125 -2.3125 L 1.53125 -2.3125 C 1.539062 -2.289062 1.554688 -2.257812 1.578125 -2.21875 C 1.628906 -2.082031 1.660156 -1.660156 1.671875 -0.953125 C 1.671875 -0.796875 1.671875 -0.550781 1.671875 -0.21875 C 1.648438 -0.207031 1.609375 -0.1875 1.546875 -0.15625 C 1.460938 -0.101562 1.410156 -0.078125 1.390625 -0.078125 C 1.359375 -0.078125 1.316406 -0.132812 1.265625 -0.25 C 1.210938 -0.363281 1.179688 -0.46875 1.171875 -0.5625 C 1.148438 -0.664062 1.132812 -0.71875 1.125 -0.71875 C 1.101562 -0.71875 1.066406 -0.675781 1.015625 -0.59375 C 0.953125 -0.488281 0.890625 -0.40625 0.828125 -0.34375 C 0.773438 -0.289062 0.734375 -0.257812 0.703125 -0.25 C 0.671875 -0.238281 0.613281 -0.234375 0.53125 -0.234375 C 0.3125 -0.234375 0.171875 -0.316406 0.109375 -0.484375 C 0.078125 -0.535156 0.0625 -0.609375 0.0625 -0.703125 C 0.0625 -0.859375 0.0859375 -1.03125 0.140625 -1.21875 C 0.171875 -1.40625 0.222656 -1.5625 0.296875 -1.6875 C 0.328125 -1.757812 0.398438 -1.859375 0.515625 -1.984375 C 0.628906 -2.117188 0.71875 -2.207031 0.78125 -2.25 Z M 0.78125 -2.25 "/></g></g><g transform="translate(4.339155, 4.229648)"><g><path d="M 0.171875 -1.921875 C 0.179688 -1.941406 0.226562 -1.953125 0.3125 -1.953125 L 0.359375 -1.953125 C 0.441406 -1.953125 0.488281 -1.945312 0.5 -1.9375 C 0.519531 -1.925781 0.535156 -1.898438 0.546875 -1.859375 C 0.554688 -1.828125 0.5625 -1.71875 0.5625 -1.53125 C 0.5625 -0.9375 0.546875 -0.515625 0.515625 -0.265625 C 0.492188 -0.160156 0.476562 -0.0976562 0.46875 -0.078125 C 0.445312 -0.046875 0.414062 -0.0234375 0.375 -0.015625 C 0.300781 0.00390625 0.253906 0.015625 0.234375 0.015625 C 0.191406 0.015625 0.164062 -0.00390625 0.15625 -0.046875 C 0.144531 -0.0859375 0.128906 -0.175781 0.109375 -0.3125 C 0.078125 -0.5 0.0625 -0.707031 0.0625 -0.9375 C 0.0625 -1.175781 0.0703125 -1.390625 0.09375 -1.578125 C 0.113281 -1.765625 0.140625 -1.878906 0.171875 -1.921875 Z M 0.203125 -2.71875 C 0.222656 -2.738281 0.273438 -2.75 0.359375 -2.75 C 0.429688 -2.75 0.484375 -2.738281 0.515625 -2.71875 C 0.546875 -2.6875 0.5625 -2.601562 0.5625 -2.46875 C 0.5625 -2.414062 0.554688 -2.375 0.546875 -2.34375 C 0.523438 -2.300781 0.484375 -2.28125 0.421875 -2.28125 C 0.410156 -2.28125 0.398438 -2.28125 0.390625 -2.28125 L 0.34375 -2.28125 C 0.238281 -2.28125 0.1875 -2.300781 0.1875 -2.34375 C 0.175781 -2.363281 0.171875 -2.410156 0.171875 -2.484375 L 0.171875 -2.546875 C 0.171875 -2.648438 0.179688 -2.707031 0.203125 -2.71875 Z M 0.203125 -2.71875 "/></g></g><g transform="translate(4.991096, 4.229648)"><g><path d="M 0.234375 -2.9375 C 0.242188 -2.945312 0.285156 -2.953125 0.359375 -2.953125 L 0.421875 -2.953125 C 0.453125 -2.953125 0.503906 -2.953125 0.578125 -2.953125 C 0.585938 -2.921875 0.609375 -2.863281 0.640625 -2.78125 C 0.734375 -2.476562 0.78125 -2.007812 0.78125 -1.375 C 0.78125 -0.769531 0.734375 -0.378906 0.640625 -0.203125 C 0.628906 -0.171875 0.613281 -0.148438 0.59375 -0.140625 C 0.582031 -0.128906 0.566406 -0.125 0.546875 -0.125 C 0.535156 -0.125 0.492188 -0.125 0.421875 -0.125 C 0.328125 -0.144531 0.265625 -0.160156 0.234375 -0.171875 C 0.222656 -0.191406 0.203125 -0.285156 0.171875 -0.453125 C 0.140625 -0.617188 0.113281 -0.800781 0.09375 -1 C 0.0703125 -1.164062 0.0625 -1.335938 0.0625 -1.515625 C 0.0625 -1.847656 0.078125 -2.160156 0.109375 -2.453125 C 0.148438 -2.753906 0.191406 -2.914062 0.234375 -2.9375 Z M 0.234375 -2.9375 "/></g></g><g transform="translate(5.850278, 4.229648)"><g><path d="M 1.34375 -1.921875 C 1.351562 -1.953125 1.363281 -1.972656 1.375 -1.984375 C 1.394531 -1.992188 1.425781 -2 1.46875 -2 C 1.476562 -2 1.488281 -2 1.5 -2 L 1.546875 -2 C 1.628906 -1.988281 1.679688 -1.976562 1.703125 -1.96875 C 1.722656 -1.957031 1.742188 -1.921875 1.765625 -1.859375 C 1.796875 -1.773438 1.828125 -1.628906 1.859375 -1.421875 C 1.867188 -1.328125 1.875 -1.21875 1.875 -1.09375 C 1.875 -0.476562 1.679688 0.0820312 1.296875 0.59375 C 1.160156 0.769531 1.003906 0.921875 0.828125 1.046875 C 0.640625 1.171875 0.488281 1.234375 0.375 1.234375 C 0.320312 1.234375 0.285156 1.21875 0.265625 1.1875 C 0.242188 1.15625 0.222656 1.082031 0.203125 0.96875 C 0.191406 0.925781 0.1875 0.898438 0.1875 0.890625 C 0.1875 0.867188 0.203125 0.859375 0.234375 0.859375 C 0.285156 0.859375 0.347656 0.828125 0.421875 0.765625 C 0.492188 0.691406 0.601562 0.5625 0.75 0.375 C 0.894531 0.175781 1.003906 0.015625 1.078125 -0.109375 C 1.140625 -0.222656 1.191406 -0.351562 1.234375 -0.5 C 1.285156 -0.644531 1.3125 -0.757812 1.3125 -0.84375 L 1.3125 -0.875 C 1.300781 -0.914062 1.296875 -0.9375 1.296875 -0.9375 C 1.285156 -0.9375 1.242188 -0.875 1.171875 -0.75 C 1.085938 -0.59375 1.003906 -0.476562 0.921875 -0.40625 C 0.867188 -0.363281 0.828125 -0.332031 0.796875 -0.3125 C 0.765625 -0.300781 0.710938 -0.296875 0.640625 -0.296875 C 0.566406 -0.296875 0.515625 -0.300781 0.484375 -0.3125 C 0.441406 -0.332031 0.394531 -0.363281 0.34375 -0.40625 C 0.25 -0.488281 0.179688 -0.59375 0.140625 -0.71875 C 0.0976562 -0.84375 0.0703125 -1.007812 0.0625 -1.21875 C 0.0625 -1.257812 0.0625 -1.328125 0.0625 -1.421875 C 0.0625 -1.554688 0.0664062 -1.644531 0.078125 -1.6875 C 0.0859375 -1.71875 0.0976562 -1.765625 0.109375 -1.828125 C 0.140625 -1.828125 0.203125 -1.828125 0.296875 -1.828125 L 0.34375 -1.828125 C 0.363281 -1.828125 0.375 -1.828125 0.375 -1.828125 C 0.414062 -1.828125 0.441406 -1.820312 0.453125 -1.8125 C 0.460938 -1.800781 0.472656 -1.773438 0.484375 -1.734375 C 0.492188 -1.660156 0.5 -1.523438 0.5 -1.328125 C 0.5 -1.171875 0.515625 -1.023438 0.546875 -0.890625 C 0.566406 -0.742188 0.59375 -0.671875 0.625 -0.671875 C 0.675781 -0.671875 0.742188 -0.769531 0.828125 -0.96875 C 0.878906 -1.09375 0.96875 -1.253906 1.09375 -1.453125 C 1.21875 -1.679688 1.300781 -1.835938 1.34375 -1.921875 Z M 1.34375 -1.921875 "/></g></g></g></g></g></g></svg>