<svg xmlns="http://www.w3.org/2000/svg" xmlns:xlink="http://www.w3.org/1999/xlink" width="300" zoomAndPan="magnify" viewBox="0 0 224.87999 67.499998" height="90" preserveAspectRatio="xMidYMid meet" version="1.0"><defs><g/><clipPath id="54eb483049"><path d="M 0.375 6 L 44 6 L 44 40 L 0.375 40 Z M 0.375 6 " clip-rule="nonzero"/></clipPath><clipPath id="83f04818e4"><rect x="0" width="99" y="0" height="55"/></clipPath></defs><g transform="matrix(1, 0, 0, 1, 64, 4)"><g clip-path="url(#83f04818e4)"><g clip-path="url(#54eb483049)"><g fill="#cc007e" fill-opacity="1"><g transform="translate(0.59726, 37.742001)"><g><path d="M 30.703125 -28.1875 C 30.703125 -27.78125 30.515625 -27.144531 30.140625 -26.28125 C 29.773438 -25.414062 29.289062 -24.472656 28.6875 -23.453125 C 27.75 -21.804688 26.867188 -20.066406 26.046875 -18.234375 C 25.222656 -16.410156 24.5 -14.582031 23.875 -12.75 C 23.257812 -10.925781 22.757812 -9.175781 22.375 -7.5 C 22.84375 -8.1875 23.363281 -8.941406 23.9375 -9.765625 C 24.519531 -10.585938 25.128906 -11.492188 25.765625 -12.484375 C 26.453125 -13.535156 27.023438 -14.394531 27.484375 -15.0625 C 27.953125 -15.738281 28.296875 -16.226562 28.515625 -16.53125 L 32.734375 -22.265625 C 33.691406 -23.578125 34.515625 -24.703125 35.203125 -25.640625 C 35.890625 -26.578125 36.453125 -27.304688 36.890625 -27.828125 C 37.710938 -28.867188 38.410156 -29.601562 38.984375 -30.03125 C 39.566406 -30.457031 40.175781 -30.671875 40.8125 -30.671875 C 41.4375 -30.671875 41.96875 -30.425781 42.40625 -29.9375 C 42.851562 -29.457031 43.078125 -28.875 43.078125 -28.1875 C 43.078125 -27.78125 42.890625 -27.144531 42.515625 -26.28125 C 42.140625 -25.414062 41.648438 -24.472656 41.046875 -23.453125 C 40.054688 -21.742188 39.109375 -19.984375 38.203125 -18.171875 C 37.296875 -16.359375 36.476562 -14.554688 35.75 -12.765625 C 35.03125 -10.984375 34.4375 -9.3125 33.96875 -7.75 C 33.5 -6.1875 33.195312 -4.800781 33.0625 -3.59375 L 33.015625 -3.046875 C 33.015625 -2.640625 33.0625 -2.285156 33.15625 -1.984375 C 33.257812 -1.679688 33.421875 -1.53125 33.640625 -1.53125 C 34.484375 -1.53125 35.28125 -1.960938 36.03125 -2.828125 C 36.789062 -3.691406 37.4375 -4.628906 37.96875 -5.640625 C 38.238281 -6.171875 38.550781 -6.8125 38.90625 -7.5625 C 39.269531 -8.320312 39.679688 -9.207031 40.140625 -10.21875 C 40.367188 -10.71875 40.601562 -11.117188 40.84375 -11.421875 C 41.09375 -11.722656 41.4375 -11.816406 41.875 -11.703125 L 41.921875 -11.703125 C 42.441406 -11.703125 42.703125 -11.457031 42.703125 -10.96875 C 42.703125 -10.769531 42.6875 -10.644531 42.65625 -10.59375 C 42.632812 -10.476562 42.601562 -10.332031 42.5625 -10.15625 C 42.519531 -9.976562 42.441406 -9.753906 42.328125 -9.484375 C 41.453125 -7.117188 40.445312 -5.066406 39.3125 -3.328125 C 38.1875 -1.597656 37.019531 -0.269531 35.8125 0.65625 C 34.601562 1.59375 33.410156 2.0625 32.234375 2.0625 C 30.609375 2.0625 29.660156 0.9375 29.390625 -1.3125 C 29.273438 -2.632812 29.59375 -4.394531 30.34375 -6.59375 C 31.101562 -8.789062 32.15625 -11.273438 33.5 -14.046875 C 34.851562 -16.828125 36.351562 -19.742188 38 -22.796875 C 38.414062 -23.535156 38.625 -24.082031 38.625 -24.4375 C 38.625 -24.6875 38.523438 -24.8125 38.328125 -24.8125 C 38.109375 -24.8125 37.820312 -24.675781 37.46875 -24.40625 C 37.269531 -24.269531 37.078125 -24.085938 36.890625 -23.859375 C 36.703125 -23.640625 36.492188 -23.378906 36.265625 -23.078125 C 35.171875 -21.617188 34.25 -20.398438 33.5 -19.421875 C 32.757812 -18.453125 32.128906 -17.601562 31.609375 -16.875 C 31.085938 -16.144531 30.609375 -15.457031 30.171875 -14.8125 C 29.734375 -14.164062 29.265625 -13.460938 28.765625 -12.703125 C 28.273438 -11.953125 27.671875 -11.03125 26.953125 -9.9375 C 25.828125 -8.175781 24.800781 -6.632812 23.875 -5.3125 C 22.957031 -4 22.15625 -2.914062 21.46875 -2.0625 C 20.09375 -0.351562 18.859375 0.5 17.765625 0.5 C 17.296875 0.5 16.910156 0.335938 16.609375 0.015625 C 16.304688 -0.296875 16.15625 -0.78125 16.15625 -1.4375 C 16.15625 -2.070312 16.359375 -3.003906 16.765625 -4.234375 C 17.179688 -5.472656 17.742188 -6.910156 18.453125 -8.546875 C 19.171875 -10.179688 19.984375 -11.925781 20.890625 -13.78125 C 21.804688 -15.632812 22.765625 -17.503906 23.765625 -19.390625 C 24.765625 -21.273438 25.742188 -23.054688 26.703125 -24.734375 C 27.066406 -25.304688 27.363281 -25.894531 27.59375 -26.5 C 27.832031 -27.101562 27.953125 -27.570312 27.953125 -27.90625 C 27.953125 -28.125 27.894531 -28.234375 27.78125 -28.234375 C 27.007812 -28.234375 26.035156 -27.394531 24.859375 -25.71875 C 24.253906 -24.863281 23.566406 -23.851562 22.796875 -22.6875 C 22.023438 -21.519531 21.171875 -20.179688 20.234375 -18.671875 C 19.628906 -17.648438 19.128906 -16.835938 18.734375 -16.234375 C 18.335938 -15.628906 18.070312 -15.21875 17.9375 -15 L 15.90625 -12.078125 C 14.53125 -10.066406 13.363281 -8.378906 12.40625 -7.015625 C 11.445312 -5.660156 10.570312 -4.539062 9.78125 -3.65625 C 9 -2.78125 8.210938 -2.015625 7.421875 -1.359375 C 6.210938 -0.398438 5.03125 0.078125 3.875 0.078125 C 3.15625 0.078125 2.515625 0 1.953125 -0.15625 C 1.390625 -0.320312 0.847656 -0.671875 0.328125 -1.203125 C 0.109375 -1.421875 0 -1.648438 0 -1.890625 C 0 -2.140625 0.109375 -2.351562 0.328125 -2.53125 C 0.546875 -2.707031 0.820312 -2.796875 1.15625 -2.796875 C 1.40625 -2.796875 1.707031 -2.703125 2.0625 -2.515625 C 2.71875 -2.296875 3.128906 -2.1875 3.296875 -2.1875 C 4.097656 -2.1875 4.921875 -2.671875 5.765625 -3.640625 C 6.617188 -4.617188 7.472656 -5.851562 8.328125 -7.34375 C 8.734375 -8.082031 9.203125 -8.957031 9.734375 -9.96875 C 10.273438 -10.988281 10.878906 -12.144531 11.546875 -13.4375 C 12.804688 -15.90625 13.9375 -18.050781 14.9375 -19.875 C 15.945312 -21.707031 16.941406 -23.320312 17.921875 -24.71875 C 18.910156 -26.125 19.984375 -27.378906 21.140625 -28.484375 C 22.867188 -30.128906 24.6875 -30.953125 26.59375 -30.953125 C 27.769531 -30.953125 28.75 -30.71875 29.53125 -30.25 C 30.3125 -29.78125 30.703125 -29.09375 30.703125 -28.1875 Z M 40.765625 -29.1875 C 40.878906 -29.207031 40.984375 -29.269531 41.078125 -29.375 C 41.171875 -29.488281 41.21875 -29.601562 41.21875 -29.71875 C 41.21875 -29.851562 41.160156 -29.9375 41.046875 -29.96875 C 40.941406 -30.019531 40.765625 -30.003906 40.515625 -29.921875 C 40.265625 -29.835938 40.140625 -29.710938 40.140625 -29.546875 C 40.140625 -29.242188 40.347656 -29.125 40.765625 -29.1875 Z M 24.65625 -28.859375 C 24.957031 -28.992188 25.109375 -29.171875 25.109375 -29.390625 C 25.109375 -29.578125 24.992188 -29.671875 24.765625 -29.671875 C 24.691406 -29.671875 24.539062 -29.625 24.3125 -29.53125 C 24.09375 -29.4375 23.984375 -29.304688 23.984375 -29.140625 C 23.984375 -29.003906 24.050781 -28.898438 24.1875 -28.828125 C 24.332031 -28.765625 24.488281 -28.773438 24.65625 -28.859375 Z M 38.5 -27.40625 C 38.6875 -27.65625 39.03125 -28.015625 39.53125 -28.484375 C 39.800781 -28.671875 39.9375 -28.875 39.9375 -29.09375 C 39.9375 -29.257812 39.851562 -29.34375 39.6875 -29.34375 C 39.582031 -29.34375 39.40625 -29.257812 39.15625 -29.09375 C 38.800781 -28.820312 38.375 -28.398438 37.875 -27.828125 C 37.769531 -27.710938 37.71875 -27.585938 37.71875 -27.453125 C 37.71875 -27.234375 37.828125 -27.125 38.046875 -27.125 C 38.234375 -27.125 38.382812 -27.21875 38.5 -27.40625 Z M 16.28125 -18.421875 C 17.300781 -20.179688 18.164062 -21.644531 18.875 -22.8125 C 19.59375 -23.976562 20.257812 -24.953125 20.875 -25.734375 C 21.5 -26.523438 22.164062 -27.191406 22.875 -27.734375 C 23.226562 -28.015625 23.40625 -28.273438 23.40625 -28.515625 C 23.40625 -28.679688 23.328125 -28.765625 23.171875 -28.765625 C 23.003906 -28.765625 22.753906 -28.644531 22.421875 -28.40625 C 21.242188 -27.46875 20.101562 -26.1875 19 -24.5625 C 17.90625 -22.945312 16.738281 -21.007812 15.5 -18.75 C 15.414062 -18.582031 15.375 -18.429688 15.375 -18.296875 C 15.375 -18.128906 15.46875 -18.046875 15.65625 -18.046875 C 15.9375 -18.046875 16.144531 -18.171875 16.28125 -18.421875 Z M 17.1875 -2.015625 C 17.1875 -1.742188 17.226562 -1.523438 17.3125 -1.359375 C 17.394531 -1.191406 17.488281 -1.109375 17.59375 -1.109375 C 17.707031 -1.109375 17.804688 -1.191406 17.890625 -1.359375 C 17.972656 -1.492188 18.015625 -1.710938 18.015625 -2.015625 C 18.015625 -2.429688 18.109375 -2.878906 18.296875 -3.359375 C 18.492188 -3.835938 18.769531 -4.445312 19.125 -5.1875 C 19.257812 -5.550781 19.328125 -5.773438 19.328125 -5.859375 C 19.328125 -6.078125 19.242188 -6.1875 19.078125 -6.1875 C 18.835938 -6.1875 18.609375 -5.976562 18.390625 -5.5625 C 17.585938 -4.019531 17.1875 -2.835938 17.1875 -2.015625 Z M 31.078125 -1.5625 C 31.078125 -2 30.96875 -2.21875 30.75 -2.21875 C 30.5 -2.21875 30.375 -1.878906 30.375 -1.203125 C 30.375 -0.347656 30.632812 0.296875 31.15625 0.734375 C 31.269531 0.847656 31.378906 0.90625 31.484375 0.90625 C 31.734375 0.90625 31.859375 0.769531 31.859375 0.5 C 31.859375 0.382812 31.804688 0.273438 31.703125 0.171875 C 31.421875 -0.109375 31.238281 -0.359375 31.15625 -0.578125 C 31.070312 -0.796875 31.046875 -1.070312 31.078125 -1.40625 Z M 31.078125 -1.5625 "/></g></g></g></g><g fill="#cc007e" fill-opacity="1"><g transform="translate(39.555336, 37.742001)"><g><path d="M 4.453125 1.078125 C 3.128906 1.078125 2.035156 0.597656 1.171875 -0.359375 C 0.304688 -1.328125 -0.125 -2.632812 -0.125 -4.28125 C -0.125 -5.6875 0.078125 -7.117188 0.484375 -8.578125 C 0.898438 -10.035156 1.492188 -11.421875 2.265625 -12.734375 C 3.035156 -14.054688 3.941406 -15.195312 4.984375 -16.15625 C 6.523438 -17.582031 8.242188 -18.296875 10.140625 -18.296875 C 10.878906 -18.296875 11.554688 -18.164062 12.171875 -17.90625 C 12.796875 -17.644531 13.285156 -17.269531 13.640625 -16.78125 C 14.296875 -15.875 14.625 -14.632812 14.625 -13.0625 C 14.625 -12.351562 14.546875 -11.597656 14.390625 -10.796875 C 15.128906 -10.710938 15.828125 -10.875 16.484375 -11.28125 C 17.148438 -11.695312 17.660156 -12.320312 18.015625 -13.15625 L 18.015625 -13.1875 C 18.285156 -13.738281 18.613281 -14.066406 19 -14.171875 C 19.382812 -14.285156 19.71875 -14.257812 20 -14.09375 C 20.289062 -13.925781 20.4375 -13.664062 20.4375 -13.3125 C 20.4375 -13.007812 20.328125 -12.613281 20.109375 -12.125 C 19.585938 -10.914062 18.851562 -9.992188 17.90625 -9.359375 C 16.957031 -8.722656 15.851562 -8.40625 14.59375 -8.40625 C 14.476562 -8.40625 14.335938 -8.410156 14.171875 -8.421875 C 14.015625 -8.441406 13.828125 -8.460938 13.609375 -8.484375 C 12.066406 -4.722656 10.332031 -2.0625 8.40625 -0.5 C 7.113281 0.550781 5.796875 1.078125 4.453125 1.078125 Z M 9.609375 -16.90625 C 9.960938 -16.957031 10.140625 -17.109375 10.140625 -17.359375 C 10.140625 -17.597656 9.988281 -17.71875 9.6875 -17.71875 C 9.488281 -17.71875 9.332031 -17.671875 9.21875 -17.578125 C 9.113281 -17.484375 9.0625 -17.378906 9.0625 -17.265625 C 9.0625 -16.960938 9.242188 -16.84375 9.609375 -16.90625 Z M 5.640625 -14.671875 C 6.003906 -15.054688 6.382812 -15.398438 6.78125 -15.703125 C 7.175781 -16.003906 7.59375 -16.253906 8.03125 -16.453125 C 8.3125 -16.554688 8.453125 -16.71875 8.453125 -16.9375 C 8.453125 -17.300781 8.242188 -17.382812 7.828125 -17.1875 C 6.785156 -16.769531 5.863281 -16.109375 5.0625 -15.203125 C 4.957031 -15.097656 4.90625 -14.976562 4.90625 -14.84375 C 4.90625 -14.59375 5.03125 -14.46875 5.28125 -14.46875 C 5.382812 -14.46875 5.503906 -14.535156 5.640625 -14.671875 Z M 11.328125 -10.71875 C 11.492188 -10.550781 11.644531 -10.46875 11.78125 -10.46875 C 12.007812 -10.46875 12.125 -10.601562 12.125 -10.875 C 12.125 -11.070312 12.023438 -11.253906 11.828125 -11.421875 C 11.421875 -11.773438 11.082031 -12.234375 10.8125 -12.796875 C 10.550781 -13.359375 10.410156 -13.898438 10.390625 -14.421875 C 10.335938 -14.867188 10.1875 -15.09375 9.9375 -15.09375 C 9.71875 -15.09375 9.609375 -14.882812 9.609375 -14.46875 C 9.628906 -13.78125 9.789062 -13.082031 10.09375 -12.375 C 10.394531 -11.675781 10.804688 -11.125 11.328125 -10.71875 Z M 5.359375 -1.609375 C 5.929688 -1.609375 6.566406 -1.953125 7.265625 -2.640625 C 7.972656 -3.328125 8.675781 -4.253906 9.375 -5.421875 C 10.070312 -6.585938 10.710938 -7.910156 11.296875 -9.390625 C 10.554688 -9.921875 9.941406 -10.664062 9.453125 -11.625 C 8.972656 -12.582031 8.707031 -13.554688 8.65625 -14.546875 C 8 -13.773438 7.332031 -12.804688 6.65625 -11.640625 C 5.976562 -10.472656 5.40625 -9.25 4.9375 -7.96875 C 4.476562 -6.695312 4.25 -5.507812 4.25 -4.40625 C 4.25 -3.632812 4.359375 -2.960938 4.578125 -2.390625 C 4.765625 -1.867188 5.023438 -1.609375 5.359375 -1.609375 Z M 4.53125 0.28125 C 4.882812 0.28125 5.0625 0.171875 5.0625 -0.046875 C 5.0625 -0.347656 4.859375 -0.507812 4.453125 -0.53125 C 3.023438 -0.59375 2.117188 -1.378906 1.734375 -2.890625 C 1.703125 -3.023438 1.640625 -3.132812 1.546875 -3.21875 C 1.453125 -3.300781 1.363281 -3.34375 1.28125 -3.34375 C 1.03125 -3.34375 0.90625 -3.175781 0.90625 -2.84375 C 0.90625 -2.726562 0.945312 -2.5625 1.03125 -2.34375 C 1.300781 -1.550781 1.734375 -0.921875 2.328125 -0.453125 C 2.921875 0.015625 3.628906 0.257812 4.453125 0.28125 Z M 4.53125 0.28125 "/></g></g></g><g fill="#cc007e" fill-opacity="1"><g transform="translate(55.262242, 37.742001)"><g><path d="M 14.71875 -10.96875 C 15.457031 -10.96875 15.828125 -10.691406 15.828125 -10.140625 C 15.828125 -9.753906 15.660156 -9.148438 15.328125 -8.328125 C 14.066406 -5.140625 12.53125 -2.757812 10.71875 -1.1875 C 8.90625 0.375 7.050781 1.15625 5.15625 1.15625 C 3.613281 1.15625 2.367188 0.726562 1.421875 -0.125 C 0.472656 -0.976562 0 -2.242188 0 -3.921875 C 0 -5.597656 0.359375 -7.835938 1.078125 -10.640625 C 1.617188 -12.890625 2.28125 -15.117188 3.0625 -17.328125 C 3.851562 -19.546875 4.726562 -21.550781 5.6875 -23.34375 C 6.644531 -25.144531 7.632812 -26.554688 8.65625 -27.578125 C 9.226562 -28.148438 9.890625 -28.601562 10.640625 -28.9375 C 11.398438 -29.269531 12.140625 -29.4375 12.859375 -29.4375 C 13.796875 -29.4375 14.597656 -29.164062 15.265625 -28.625 C 15.941406 -28.09375 16.28125 -27.34375 16.28125 -26.375 C 16.28125 -25.445312 15.988281 -24.375 15.40625 -23.15625 C 14.832031 -21.945312 14.066406 -20.710938 13.109375 -19.453125 C 12.367188 -18.441406 11.515625 -17.429688 10.546875 -16.421875 C 9.585938 -15.421875 8.394531 -14.234375 6.96875 -12.859375 L 5.28125 -11.171875 L 4.953125 -9.890625 C 4.566406 -8.296875 4.296875 -7.109375 4.140625 -6.328125 C 3.992188 -5.546875 3.921875 -4.820312 3.921875 -4.15625 C 3.921875 -3.3125 4.09375 -2.664062 4.4375 -2.21875 C 4.78125 -1.78125 5.347656 -1.5625 6.140625 -1.5625 C 7.265625 -1.5625 8.4375 -2.191406 9.65625 -3.453125 C 10.882812 -4.722656 12.050781 -6.632812 13.15625 -9.1875 C 13.175781 -9.269531 13.257812 -9.488281 13.40625 -9.84375 C 13.5625 -10.207031 13.75 -10.484375 13.96875 -10.671875 C 14.164062 -10.867188 14.414062 -10.96875 14.71875 -10.96875 Z M 8.03125 -25.46875 C 7.84375 -25.195312 7.75 -24.976562 7.75 -24.8125 C 7.75 -24.625 7.832031 -24.53125 8 -24.53125 C 8.300781 -24.53125 8.546875 -24.691406 8.734375 -25.015625 C 8.953125 -25.296875 9.148438 -25.546875 9.328125 -25.765625 C 9.515625 -25.984375 9.703125 -26.1875 9.890625 -26.375 C 10.054688 -26.539062 10.140625 -26.707031 10.140625 -26.875 C 10.140625 -27.09375 10.03125 -27.203125 9.8125 -27.203125 C 9.644531 -27.203125 9.476562 -27.117188 9.3125 -26.953125 C 9.0625 -26.710938 8.832031 -26.46875 8.625 -26.21875 C 8.425781 -25.96875 8.226562 -25.71875 8.03125 -25.46875 Z M 12.984375 -26.46875 C 12.566406 -26.46875 12.09375 -26.15625 11.5625 -25.53125 C 11.03125 -24.914062 10.53125 -24.207031 10.0625 -23.40625 C 8.9375 -21.570312 7.820312 -19.085938 6.71875 -15.953125 C 7.488281 -16.742188 8.222656 -17.566406 8.921875 -18.421875 C 9.617188 -19.273438 10.300781 -20.128906 10.96875 -20.984375 C 11.59375 -21.835938 12.171875 -22.742188 12.703125 -23.703125 C 13.242188 -24.660156 13.515625 -25.390625 13.515625 -25.890625 C 13.515625 -26.273438 13.335938 -26.46875 12.984375 -26.46875 Z M 3.125 -15.125 C 3.101562 -15.070312 3.09375 -14.976562 3.09375 -14.84375 C 3.09375 -14.5625 3.203125 -14.421875 3.421875 -14.421875 C 3.640625 -14.421875 3.816406 -14.613281 3.953125 -15 C 4.367188 -16.457031 4.867188 -17.863281 5.453125 -19.21875 C 6.046875 -20.582031 6.726562 -21.910156 7.5 -23.203125 C 7.550781 -23.316406 7.578125 -23.425781 7.578125 -23.53125 C 7.578125 -23.8125 7.484375 -23.953125 7.296875 -23.953125 C 7.160156 -23.953125 6.984375 -23.800781 6.765625 -23.5 C 5.992188 -22.226562 5.3125 -20.898438 4.71875 -19.515625 C 4.125 -18.128906 3.59375 -16.664062 3.125 -15.125 Z M 2.4375 -0.40625 C 2.65625 -0.269531 2.847656 -0.203125 3.015625 -0.203125 C 3.203125 -0.203125 3.296875 -0.269531 3.296875 -0.40625 C 3.296875 -0.625 3.128906 -0.832031 2.796875 -1.03125 C 2.304688 -1.332031 1.992188 -1.800781 1.859375 -2.4375 C 1.796875 -2.707031 1.644531 -2.84375 1.40625 -2.84375 C 1.1875 -2.84375 1.078125 -2.675781 1.078125 -2.34375 C 1.128906 -1.582031 1.582031 -0.9375 2.4375 -0.40625 Z M 2.4375 -0.40625 "/></g></g></g><g fill="#cc007e" fill-opacity="1"><g transform="translate(67.753557, 37.742001)"><g><path d="M 14.71875 -10.96875 C 15.457031 -10.96875 15.828125 -10.691406 15.828125 -10.140625 C 15.828125 -9.753906 15.660156 -9.148438 15.328125 -8.328125 C 14.066406 -5.140625 12.53125 -2.757812 10.71875 -1.1875 C 8.90625 0.375 7.050781 1.15625 5.15625 1.15625 C 3.613281 1.15625 2.367188 0.726562 1.421875 -0.125 C 0.472656 -0.976562 0 -2.242188 0 -3.921875 C 0 -5.597656 0.359375 -7.835938 1.078125 -10.640625 C 1.617188 -12.890625 2.28125 -15.117188 3.0625 -17.328125 C 3.851562 -19.546875 4.726562 -21.550781 5.6875 -23.34375 C 6.644531 -25.144531 7.632812 -26.554688 8.65625 -27.578125 C 9.226562 -28.148438 9.890625 -28.601562 10.640625 -28.9375 C 11.398438 -29.269531 12.140625 -29.4375 12.859375 -29.4375 C 13.796875 -29.4375 14.597656 -29.164062 15.265625 -28.625 C 15.941406 -28.09375 16.28125 -27.34375 16.28125 -26.375 C 16.28125 -25.445312 15.988281 -24.375 15.40625 -23.15625 C 14.832031 -21.945312 14.066406 -20.710938 13.109375 -19.453125 C 12.367188 -18.441406 11.515625 -17.429688 10.546875 -16.421875 C 9.585938 -15.421875 8.394531 -14.234375 6.96875 -12.859375 L 5.28125 -11.171875 L 4.953125 -9.890625 C 4.566406 -8.296875 4.296875 -7.109375 4.140625 -6.328125 C 3.992188 -5.546875 3.921875 -4.820312 3.921875 -4.15625 C 3.921875 -3.3125 4.09375 -2.664062 4.4375 -2.21875 C 4.78125 -1.78125 5.347656 -1.5625 6.140625 -1.5625 C 7.265625 -1.5625 8.4375 -2.191406 9.65625 -3.453125 C 10.882812 -4.722656 12.050781 -6.632812 13.15625 -9.1875 C 13.175781 -9.269531 13.257812 -9.488281 13.40625 -9.84375 C 13.5625 -10.207031 13.75 -10.484375 13.96875 -10.671875 C 14.164062 -10.867188 14.414062 -10.96875 14.71875 -10.96875 Z M 8.03125 -25.46875 C 7.84375 -25.195312 7.75 -24.976562 7.75 -24.8125 C 7.75 -24.625 7.832031 -24.53125 8 -24.53125 C 8.300781 -24.53125 8.546875 -24.691406 8.734375 -25.015625 C 8.953125 -25.296875 9.148438 -25.546875 9.328125 -25.765625 C 9.515625 -25.984375 9.703125 -26.1875 9.890625 -26.375 C 10.054688 -26.539062 10.140625 -26.707031 10.140625 -26.875 C 10.140625 -27.09375 10.03125 -27.203125 9.8125 -27.203125 C 9.644531 -27.203125 9.476562 -27.117188 9.3125 -26.953125 C 9.0625 -26.710938 8.832031 -26.46875 8.625 -26.21875 C 8.425781 -25.96875 8.226562 -25.71875 8.03125 -25.46875 Z M 12.984375 -26.46875 C 12.566406 -26.46875 12.09375 -26.15625 11.5625 -25.53125 C 11.03125 -24.914062 10.53125 -24.207031 10.0625 -23.40625 C 8.9375 -21.570312 7.820312 -19.085938 6.71875 -15.953125 C 7.488281 -16.742188 8.222656 -17.566406 8.921875 -18.421875 C 9.617188 -19.273438 10.300781 -20.128906 10.96875 -20.984375 C 11.59375 -21.835938 12.171875 -22.742188 12.703125 -23.703125 C 13.242188 -24.660156 13.515625 -25.390625 13.515625 -25.890625 C 13.515625 -26.273438 13.335938 -26.46875 12.984375 -26.46875 Z M 3.125 -15.125 C 3.101562 -15.070312 3.09375 -14.976562 3.09375 -14.84375 C 3.09375 -14.5625 3.203125 -14.421875 3.421875 -14.421875 C 3.640625 -14.421875 3.816406 -14.613281 3.953125 -15 C 4.367188 -16.457031 4.867188 -17.863281 5.453125 -19.21875 C 6.046875 -20.582031 6.726562 -21.910156 7.5 -23.203125 C 7.550781 -23.316406 7.578125 -23.425781 7.578125 -23.53125 C 7.578125 -23.8125 7.484375 -23.953125 7.296875 -23.953125 C 7.160156 -23.953125 6.984375 -23.800781 6.765625 -23.5 C 5.992188 -22.226562 5.3125 -20.898438 4.71875 -19.515625 C 4.125 -18.128906 3.59375 -16.664062 3.125 -15.125 Z M 2.4375 -0.40625 C 2.65625 -0.269531 2.847656 -0.203125 3.015625 -0.203125 C 3.203125 -0.203125 3.296875 -0.269531 3.296875 -0.40625 C 3.296875 -0.625 3.128906 -0.832031 2.796875 -1.03125 C 2.304688 -1.332031 1.992188 -1.800781 1.859375 -2.4375 C 1.796875 -2.707031 1.644531 -2.84375 1.40625 -2.84375 C 1.1875 -2.84375 1.078125 -2.675781 1.078125 -2.34375 C 1.128906 -1.582031 1.582031 -0.9375 2.4375 -0.40625 Z M 2.4375 -0.40625 "/></g></g></g><g fill="#cc007e" fill-opacity="1"><g transform="translate(80.24488, 37.742001)"><g><path d="M 15.328125 -18.015625 C 15.878906 -18.015625 16.335938 -17.890625 16.703125 -17.640625 C 17.078125 -17.390625 17.265625 -17.0625 17.265625 -16.65625 C 17.265625 -16.320312 17.171875 -16.019531 16.984375 -15.75 C 16.648438 -15.195312 16.34375 -14.628906 16.0625 -14.046875 C 15.789062 -13.472656 15.503906 -12.800781 15.203125 -12.03125 C 14.898438 -11.257812 14.53125 -10.300781 14.09375 -9.15625 C 12.664062 -5.25 11.390625 -1.953125 10.265625 0.734375 C 11.523438 0.984375 12.628906 1.441406 13.578125 2.109375 C 14.523438 2.785156 15 3.769531 15 5.0625 C 15 5.53125 14.878906 5.914062 14.640625 6.21875 C 14.410156 6.519531 14.117188 6.671875 13.765625 6.671875 C 13.429688 6.671875 13.15625 6.539062 12.9375 6.28125 C 12.71875 6.019531 12.609375 5.695312 12.609375 5.3125 C 12.609375 4.738281 12.359375 4.265625 11.859375 3.890625 C 11.367188 3.523438 10.5625 3.234375 9.4375 3.015625 C 8.0625 6.003906 6.316406 8.253906 4.203125 9.765625 C 2.691406 10.804688 0.921875 11.328125 -1.109375 11.328125 C -2.535156 11.328125 -3.738281 11.019531 -4.71875 10.40625 C -5.695312 9.789062 -6.1875 8.90625 -6.1875 7.75 C -6.1875 6.1875 -5.410156 4.796875 -3.859375 3.578125 C -2.304688 2.367188 -0.195312 1.492188 2.46875 0.953125 L 2.1875 0.953125 C 1.113281 0.953125 0.210938 0.71875 -0.515625 0.25 C -1.242188 -0.21875 -1.609375 -0.890625 -1.609375 -1.765625 C -1.609375 -3.503906 -1.289062 -5.207031 -0.65625 -6.875 C -0.03125 -8.550781 0.816406 -10.476562 1.890625 -12.65625 C 2.554688 -13.863281 2.96875 -14.726562 3.125 -15.25 C 3.1875 -15.382812 3.242188 -15.566406 3.296875 -15.796875 C 3.347656 -16.035156 3.40625 -16.304688 3.46875 -16.609375 C 3.625 -17.410156 3.816406 -17.984375 4.046875 -18.328125 C 4.285156 -18.671875 4.773438 -18.84375 5.515625 -18.84375 C 6.347656 -18.84375 6.953125 -18.613281 7.328125 -18.15625 C 7.710938 -17.707031 7.90625 -17.109375 7.90625 -16.359375 C 7.90625 -15.753906 7.78125 -15.132812 7.53125 -14.5 C 7.289062 -13.875 6.867188 -12.96875 6.265625 -11.78125 C 5.390625 -10.03125 4.660156 -8.4375 4.078125 -7 C 3.503906 -5.570312 3.148438 -4.226562 3.015625 -2.96875 C 2.984375 -2.851562 2.96875 -2.734375 2.96875 -2.609375 C 2.96875 -2.492188 2.96875 -2.351562 2.96875 -2.1875 C 2.96875 -1.769531 3.078125 -1.5625 3.296875 -1.5625 C 3.515625 -1.5625 3.898438 -1.710938 4.453125 -2.015625 C 5.929688 -2.816406 7.140625 -3.78125 8.078125 -4.90625 C 9.015625 -6.03125 9.742188 -7.597656 10.265625 -9.609375 C 10.648438 -11.253906 11.019531 -12.640625 11.375 -13.765625 C 11.726562 -14.890625 12.15625 -15.851562 12.65625 -16.65625 C 12.957031 -17.09375 13.351562 -17.425781 13.84375 -17.65625 C 14.34375 -17.894531 14.835938 -18.015625 15.328125 -18.015625 Z M 4.328125 -15.046875 C 4.273438 -14.929688 4.25 -14.820312 4.25 -14.71875 C 4.25 -14.46875 4.359375 -14.34375 4.578125 -14.34375 C 4.796875 -14.34375 4.972656 -14.492188 5.109375 -14.796875 C 5.304688 -15.265625 5.441406 -15.671875 5.515625 -16.015625 C 5.597656 -16.359375 5.65625 -16.640625 5.6875 -16.859375 L 5.6875 -16.984375 C 5.6875 -17.367188 5.550781 -17.5625 5.28125 -17.5625 C 5.0625 -17.5625 4.921875 -17.378906 4.859375 -17.015625 C 4.804688 -16.609375 4.734375 -16.238281 4.640625 -15.90625 C 4.546875 -15.582031 4.441406 -15.296875 4.328125 -15.046875 Z M 15.203125 -16.328125 C 15.453125 -16.378906 15.578125 -16.53125 15.578125 -16.78125 C 15.578125 -17.082031 15.414062 -17.203125 15.09375 -17.140625 C 14.375 -16.984375 13.8125 -16.65625 13.40625 -16.15625 C 13.007812 -15.664062 12.648438 -14.953125 12.328125 -14.015625 L 12.234375 -13.640625 C 12.234375 -13.390625 12.332031 -13.265625 12.53125 -13.265625 C 12.78125 -13.265625 12.972656 -13.457031 13.109375 -13.84375 C 13.410156 -14.675781 13.695312 -15.257812 13.96875 -15.59375 C 14.25 -15.9375 14.660156 -16.179688 15.203125 -16.328125 Z M 4.25 0.65625 C 5.375 0.488281 6.554688 0.40625 7.796875 0.40625 C 8.066406 -0.25 8.378906 -1.25 8.734375 -2.59375 C 8.160156 -1.96875 7.597656 -1.425781 7.046875 -0.96875 C 6.492188 -0.507812 5.957031 -0.128906 5.4375 0.171875 C 5.050781 0.390625 4.65625 0.550781 4.25 0.65625 Z M 2.140625 0.046875 C 2.609375 0.046875 2.84375 -0.101562 2.84375 -0.40625 C 2.84375 -0.519531 2.785156 -0.625 2.671875 -0.71875 C 2.566406 -0.8125 2.40625 -0.859375 2.1875 -0.859375 C 1.363281 -0.859375 0.851562 -1.148438 0.65625 -1.734375 C 0.550781 -2.085938 0.347656 -2.265625 0.046875 -2.265625 C -0.203125 -2.265625 -0.328125 -2.113281 -0.328125 -1.8125 C -0.328125 -1.625 -0.273438 -1.429688 -0.171875 -1.234375 C 0.0546875 -0.828125 0.378906 -0.507812 0.796875 -0.28125 C 1.222656 -0.0625 1.671875 0.046875 2.140625 0.046875 Z M 0.25 8.78125 C 1.40625 8.78125 2.535156 8.273438 3.640625 7.265625 C 4.753906 6.265625 5.796875 4.816406 6.765625 2.921875 C 5.710938 3.085938 4.597656 3.394531 3.421875 3.84375 C 2.242188 4.300781 1.238281 4.890625 0.40625 5.609375 C -0.4375 6.296875 -0.859375 7.078125 -0.859375 7.953125 C -0.859375 8.503906 -0.488281 8.78125 0.25 8.78125 Z M -1.078125 10.390625 C -0.710938 10.390625 -0.53125 10.25 -0.53125 9.96875 C -0.53125 9.863281 -0.582031 9.757812 -0.6875 9.65625 C -0.800781 9.5625 -0.941406 9.53125 -1.109375 9.5625 C -2.097656 9.613281 -2.875 9.445312 -3.4375 9.0625 C -4 8.675781 -4.28125 8.128906 -4.28125 7.421875 C -4.28125 6.953125 -4.421875 6.71875 -4.703125 6.71875 C -4.972656 6.71875 -5.109375 6.953125 -5.109375 7.421875 C -5.109375 8.378906 -4.738281 9.125 -4 9.65625 C -3.257812 10.195312 -2.285156 10.441406 -1.078125 10.390625 Z M -1.078125 10.390625 "/></g></g></g></g></g><g fill="#000000" fill-opacity="1"><g transform="translate(76.976123, 55.406176)"><g><path d="M 0.828125 -9.265625 C 0.847656 -9.304688 1.039062 -9.328125 1.40625 -9.328125 C 1.675781 -9.328125 1.835938 -9.3125 1.890625 -9.28125 C 1.941406 -9.25 1.992188 -9.140625 2.046875 -8.953125 C 2.085938 -8.816406 2.132812 -8.46875 2.1875 -7.90625 C 2.238281 -7.332031 2.285156 -6.710938 2.328125 -6.046875 C 2.390625 -5.390625 2.425781 -5.019531 2.4375 -4.9375 C 2.445312 -4.832031 2.46875 -4.671875 2.5 -4.453125 C 2.582031 -4.523438 2.734375 -4.664062 2.953125 -4.875 C 3.367188 -5.320312 3.671875 -5.648438 3.859375 -5.859375 C 3.953125 -5.984375 4.101562 -6.164062 4.3125 -6.40625 C 4.382812 -6.382812 4.539062 -6.335938 4.78125 -6.265625 C 4.96875 -6.203125 5.085938 -6.148438 5.140625 -6.109375 C 5.203125 -6.066406 5.234375 -6.003906 5.234375 -5.921875 C 5.234375 -5.710938 5.097656 -5.382812 4.828125 -4.9375 C 4.546875 -4.5 4.226562 -4.082031 3.875 -3.6875 C 3.726562 -3.550781 3.515625 -3.332031 3.234375 -3.03125 C 3.285156 -2.988281 3.398438 -2.921875 3.578125 -2.828125 C 3.859375 -2.640625 4.144531 -2.378906 4.4375 -2.046875 C 4.550781 -1.921875 4.722656 -1.738281 4.953125 -1.5 L 4.578125 -1.171875 C 4.316406 -0.941406 4.144531 -0.828125 4.0625 -0.828125 C 3.988281 -0.828125 3.835938 -0.921875 3.609375 -1.109375 C 3.054688 -1.578125 2.703125 -1.8125 2.546875 -1.8125 C 2.472656 -1.8125 2.4375 -1.703125 2.4375 -1.484375 C 2.4375 -1.316406 2.398438 -1.101562 2.328125 -0.84375 C 2.242188 -0.582031 2.175781 -0.453125 2.125 -0.453125 C 2.113281 -0.453125 1.9375 -0.5 1.59375 -0.59375 C 1.46875 -0.625 1.300781 -0.671875 1.09375 -0.734375 C 1.082031 -0.828125 1.054688 -1.015625 1.015625 -1.296875 C 0.972656 -1.640625 0.925781 -1.851562 0.875 -1.9375 C 0.832031 -2.039062 0.753906 -2.101562 0.640625 -2.125 C 0.515625 -2.15625 0.40625 -2.300781 0.3125 -2.5625 C 0.25 -2.738281 0.21875 -2.851562 0.21875 -2.90625 C 0.21875 -2.976562 0.289062 -3.066406 0.4375 -3.171875 C 0.488281 -3.234375 0.570312 -3.3125 0.6875 -3.40625 C 0.675781 -3.59375 0.640625 -3.960938 0.578125 -4.515625 C 0.523438 -4.972656 0.5 -5.460938 0.5 -5.984375 C 0.5 -6.703125 0.53125 -7.390625 0.59375 -8.046875 C 0.65625 -8.703125 0.734375 -9.109375 0.828125 -9.265625 Z M 0.828125 -9.265625 "/></g></g></g><g fill="#000000" fill-opacity="1"><g transform="translate(82.455887, 55.406176)"><g><path d="M 0.5625 -6.046875 C 0.59375 -6.117188 0.738281 -6.15625 1 -6.15625 L 1.15625 -6.15625 C 1.382812 -6.132812 1.53125 -6.109375 1.59375 -6.078125 C 1.65625 -6.046875 1.703125 -5.960938 1.734375 -5.828125 C 1.765625 -5.722656 1.78125 -5.390625 1.78125 -4.828125 C 1.78125 -2.941406 1.722656 -1.601562 1.609375 -0.8125 C 1.554688 -0.507812 1.507812 -0.320312 1.46875 -0.25 C 1.425781 -0.164062 1.332031 -0.0976562 1.1875 -0.046875 C 0.9375 0.0234375 0.78125 0.0625 0.71875 0.0625 C 0.601562 0.0625 0.519531 -0.00390625 0.46875 -0.140625 C 0.4375 -0.273438 0.390625 -0.554688 0.328125 -0.984375 C 0.242188 -1.566406 0.203125 -2.222656 0.203125 -2.953125 C 0.203125 -3.691406 0.238281 -4.359375 0.3125 -4.953125 C 0.375 -5.554688 0.457031 -5.921875 0.5625 -6.046875 Z M 0.640625 -8.5625 C 0.722656 -8.613281 0.878906 -8.640625 1.109375 -8.640625 C 1.359375 -8.640625 1.523438 -8.613281 1.609375 -8.5625 C 1.734375 -8.445312 1.796875 -8.179688 1.796875 -7.765625 C 1.796875 -7.609375 1.769531 -7.472656 1.71875 -7.359375 C 1.644531 -7.222656 1.507812 -7.15625 1.3125 -7.15625 C 1.300781 -7.15625 1.269531 -7.160156 1.21875 -7.171875 L 1.09375 -7.171875 C 0.75 -7.191406 0.578125 -7.25 0.578125 -7.34375 C 0.566406 -7.4375 0.554688 -7.597656 0.546875 -7.828125 L 0.546875 -8.03125 C 0.546875 -8.34375 0.578125 -8.519531 0.640625 -8.5625 Z M 0.640625 -8.5625 "/></g></g></g><g fill="#000000" fill-opacity="1"><g transform="translate(84.504016, 55.406176)"><g><path d="M 1.640625 -9.359375 C 1.671875 -9.421875 1.722656 -9.550781 1.796875 -9.75 C 1.878906 -9.738281 2.046875 -9.722656 2.296875 -9.703125 C 2.578125 -9.671875 2.769531 -9.628906 2.875 -9.578125 C 2.9375 -9.523438 2.96875 -9 2.96875 -8 L 2.96875 -6.484375 C 3.0625 -6.484375 3.234375 -6.5 3.484375 -6.53125 C 3.679688 -6.550781 3.796875 -6.5625 3.828125 -6.5625 C 3.921875 -6.5625 3.984375 -6.539062 4.015625 -6.5 C 4.066406 -6.457031 4.125 -6.367188 4.1875 -6.234375 C 4.300781 -6.003906 4.359375 -5.832031 4.359375 -5.71875 C 4.359375 -5.601562 4.285156 -5.507812 4.140625 -5.4375 C 4.003906 -5.375 3.742188 -5.304688 3.359375 -5.234375 L 3.0625 -5.1875 L 3.0625 -3.484375 C 3.0625 -1.816406 2.960938 -0.679688 2.765625 -0.078125 C 2.722656 0.046875 2.660156 0.144531 2.578125 0.21875 C 2.492188 0.289062 2.363281 0.363281 2.1875 0.4375 C 1.875 0.5625 1.6875 0.625 1.625 0.625 C 1.539062 0.625 1.488281 0.539062 1.46875 0.375 C 1.425781 0.175781 1.332031 -0.160156 1.1875 -0.640625 C 1.050781 -1.109375 0.96875 -1.941406 0.9375 -3.140625 C 0.90625 -3.921875 0.875 -4.40625 0.84375 -4.59375 C 0.8125 -4.78125 0.757812 -4.875 0.6875 -4.875 C 0.570312 -4.875 0.460938 -5.007812 0.359375 -5.28125 C 0.265625 -5.539062 0.21875 -5.703125 0.21875 -5.765625 C 0.21875 -5.890625 0.34375 -6.003906 0.59375 -6.109375 C 0.75 -6.171875 0.859375 -6.226562 0.921875 -6.28125 C 0.972656 -6.332031 1 -6.398438 1 -6.484375 C 1 -6.679688 1.082031 -7.160156 1.25 -7.921875 C 1.414062 -8.679688 1.546875 -9.160156 1.640625 -9.359375 Z M 1.640625 -9.359375 "/></g></g></g><g fill="#000000" fill-opacity="1"><g transform="translate(89.102135, 55.406176)"><g><path d="M 3.09375 -7.03125 C 3.375 -7.175781 3.585938 -7.25 3.734375 -7.25 C 3.910156 -7.25 4.070312 -7.140625 4.21875 -6.921875 C 4.40625 -6.710938 4.5 -6.566406 4.5 -6.484375 C 4.5 -6.410156 4.285156 -6.144531 3.859375 -5.6875 C 3.015625 -4.75 2.472656 -4.03125 2.234375 -3.53125 C 2.140625 -3.351562 2.015625 -2.972656 1.859375 -2.390625 C 1.703125 -1.816406 1.625 -1.453125 1.625 -1.296875 C 1.625 -1.203125 1.789062 -1.132812 2.125 -1.09375 C 2.175781 -1.082031 2.25 -1.078125 2.34375 -1.078125 C 2.582031 -1.078125 2.804688 -1.140625 3.015625 -1.265625 C 3.222656 -1.398438 3.460938 -1.625 3.734375 -1.9375 C 3.835938 -2.050781 3.984375 -2.21875 4.171875 -2.4375 C 4.265625 -2.425781 4.4375 -2.398438 4.6875 -2.359375 C 5.03125 -2.316406 5.210938 -2.25 5.234375 -2.15625 C 5.234375 -2.144531 5.238281 -2.132812 5.25 -2.125 C 5.25 -1.988281 5.164062 -1.785156 5 -1.515625 C 4.8125 -1.242188 4.628906 -1.023438 4.453125 -0.859375 C 4.253906 -0.671875 3.957031 -0.484375 3.5625 -0.296875 C 3.226562 -0.128906 2.929688 -0.046875 2.671875 -0.046875 C 2.484375 -0.046875 2.332031 -0.0507812 2.21875 -0.0625 C 1.6875 -0.101562 1.289062 -0.210938 1.03125 -0.390625 C 0.488281 -0.753906 0.21875 -1.347656 0.21875 -2.171875 C 0.21875 -2.921875 0.441406 -3.753906 0.890625 -4.671875 C 1.085938 -5.097656 1.421875 -5.554688 1.890625 -6.046875 C 2.335938 -6.535156 2.738281 -6.863281 3.09375 -7.03125 Z M 3.09375 -7.03125 "/></g></g></g><g fill="#000000" fill-opacity="1"><g transform="translate(94.609026, 55.406176)"><g><path d="M 0.546875 -9.296875 C 0.566406 -9.390625 0.613281 -9.5625 0.6875 -9.8125 L 1.296875 -9.8125 C 1.566406 -9.8125 1.734375 -9.757812 1.796875 -9.65625 C 1.878906 -9.5 1.925781 -8.921875 1.9375 -7.921875 L 1.9375 -7.421875 C 1.957031 -5.960938 2 -5.203125 2.0625 -5.140625 C 2.070312 -5.140625 2.082031 -5.140625 2.09375 -5.140625 C 2.164062 -5.140625 2.285156 -5.269531 2.453125 -5.53125 C 2.953125 -6.21875 3.445312 -6.5625 3.9375 -6.5625 C 4.21875 -6.5625 4.472656 -6.441406 4.703125 -6.203125 C 4.921875 -5.972656 5.097656 -5.632812 5.234375 -5.1875 C 5.378906 -4.769531 5.453125 -4.257812 5.453125 -3.65625 C 5.453125 -3.238281 5.445312 -2.875 5.4375 -2.5625 C 5.414062 -1.238281 5.382812 -0.503906 5.34375 -0.359375 C 5.289062 -0.242188 5.203125 -0.1875 5.078125 -0.1875 L 4.28125 -0.1875 C 4.269531 -0.363281 4.25 -0.695312 4.21875 -1.1875 C 4.1875 -1.644531 4.160156 -2.429688 4.140625 -3.546875 C 4.128906 -4.742188 4.0625 -5.34375 3.9375 -5.34375 L 3.90625 -5.34375 C 3.820312 -5.320312 3.578125 -4.96875 3.171875 -4.28125 C 2.765625 -3.59375 2.519531 -3.109375 2.4375 -2.828125 C 2.320312 -2.492188 2.265625 -2.019531 2.265625 -1.40625 C 2.265625 -0.820312 2.234375 -0.46875 2.171875 -0.34375 C 2.128906 -0.257812 1.976562 -0.140625 1.71875 0.015625 C 1.46875 0.171875 1.300781 0.25 1.21875 0.25 C 1.144531 0.25 1.03125 0.0195312 0.875 -0.4375 C 0.707031 -0.882812 0.578125 -1.332031 0.484375 -1.78125 C 0.335938 -2.425781 0.25 -3.476562 0.21875 -4.9375 C 0.207031 -5.21875 0.203125 -5.609375 0.203125 -6.109375 C 0.203125 -7.515625 0.316406 -8.578125 0.546875 -9.296875 Z M 0.546875 -9.296875 "/></g></g></g><g fill="#000000" fill-opacity="1"><g transform="translate(100.292247, 55.406176)"><g><path d="M 3.5 -5.6875 C 3.46875 -5.925781 3.429688 -6.078125 3.390625 -6.140625 C 3.367188 -6.203125 3.296875 -6.238281 3.171875 -6.25 L 3.125 -6.25 C 2.925781 -6.25 2.6875 -6.109375 2.40625 -5.828125 C 2.125 -5.546875 1.925781 -5.242188 1.8125 -4.921875 C 1.675781 -4.578125 1.609375 -4.378906 1.609375 -4.328125 C 1.609375 -4.304688 1.78125 -4.296875 2.125 -4.296875 C 2.476562 -4.296875 2.789062 -4.394531 3.0625 -4.59375 C 3.269531 -4.726562 3.40625 -4.835938 3.46875 -4.921875 C 3.53125 -5.003906 3.5625 -5.109375 3.5625 -5.234375 C 3.5625 -5.273438 3.539062 -5.425781 3.5 -5.6875 Z M 2.234375 -7.25 C 2.523438 -7.394531 2.867188 -7.46875 3.265625 -7.46875 C 3.679688 -7.46875 3.988281 -7.394531 4.1875 -7.25 C 4.632812 -6.925781 4.859375 -6.363281 4.859375 -5.5625 C 4.847656 -4.976562 4.742188 -4.53125 4.546875 -4.21875 C 4.347656 -3.90625 3.992188 -3.617188 3.484375 -3.359375 C 3.097656 -3.160156 2.679688 -3.050781 2.234375 -3.03125 C 2.066406 -3.019531 1.820312 -3 1.5 -2.96875 L 1.5 -2.5 C 1.5 -2.09375 1.640625 -1.78125 1.921875 -1.5625 C 2.203125 -1.332031 2.601562 -1.21875 3.125 -1.21875 L 3.265625 -1.21875 C 3.628906 -1.238281 3.878906 -1.296875 4.015625 -1.390625 C 4.097656 -1.453125 4.160156 -1.484375 4.203125 -1.484375 C 4.273438 -1.484375 4.410156 -1.363281 4.609375 -1.125 C 4.679688 -1.03125 4.796875 -0.890625 4.953125 -0.703125 C 4.910156 -0.660156 4.832031 -0.578125 4.71875 -0.453125 C 4.570312 -0.253906 4.378906 -0.0859375 4.140625 0.046875 C 3.929688 0.171875 3.742188 0.234375 3.578125 0.234375 C 3.523438 0.234375 3.421875 0.222656 3.265625 0.203125 C 2.648438 0.117188 2.070312 -0.09375 1.53125 -0.4375 C 0.976562 -0.78125 0.597656 -1.171875 0.390625 -1.609375 C 0.273438 -1.816406 0.21875 -2.28125 0.21875 -3 C 0.21875 -3.519531 0.253906 -3.953125 0.328125 -4.296875 C 0.429688 -4.972656 0.648438 -5.578125 0.984375 -6.109375 C 1.328125 -6.640625 1.742188 -7.019531 2.234375 -7.25 Z M 2.234375 -7.25 "/></g></g></g><g fill="#000000" fill-opacity="1"><g transform="translate(105.487172, 55.406176)"><g><path d="M 4.28125 -6.46875 C 4.570312 -6.632812 4.8125 -6.71875 5 -6.71875 C 5.03125 -6.71875 5.140625 -6.707031 5.328125 -6.6875 C 5.679688 -6.644531 5.921875 -6.578125 6.046875 -6.484375 C 6.179688 -6.347656 6.304688 -6.082031 6.421875 -5.6875 C 6.609375 -5.082031 6.703125 -4.007812 6.703125 -2.46875 C 6.703125 -1.894531 6.679688 -1.421875 6.640625 -1.046875 C 6.617188 -0.835938 6.59375 -0.519531 6.5625 -0.09375 C 6.476562 -0.09375 6.304688 -0.0820312 6.046875 -0.0625 L 5.921875 -0.0625 C 5.867188 -0.0507812 5.832031 -0.046875 5.8125 -0.046875 C 5.707031 -0.046875 5.632812 -0.0625 5.59375 -0.09375 C 5.5625 -0.113281 5.546875 -0.15625 5.546875 -0.21875 C 5.546875 -0.34375 5.488281 -0.894531 5.375 -1.875 C 5.28125 -2.875 5.234375 -3.722656 5.234375 -4.421875 C 5.234375 -4.867188 5.222656 -5.160156 5.203125 -5.296875 C 5.191406 -5.441406 5.15625 -5.523438 5.09375 -5.546875 C 4.988281 -5.585938 4.890625 -5.566406 4.796875 -5.484375 C 4.578125 -5.304688 4.171875 -4.609375 3.578125 -3.390625 C 3.003906 -2.179688 2.640625 -1.285156 2.484375 -0.703125 C 2.359375 -0.203125 2.28125 0.0625 2.25 0.09375 C 2.238281 0.101562 2.09375 0.132812 1.8125 0.1875 C 1.78125 0.1875 1.734375 0.195312 1.671875 0.21875 C 1.617188 0.226562 1.578125 0.234375 1.546875 0.234375 C 1.441406 0.234375 1.359375 0.175781 1.296875 0.0625 C 1.234375 -0.0507812 1.097656 -0.378906 0.890625 -0.921875 C 0.691406 -1.410156 0.53125 -2.019531 0.40625 -2.75 C 0.28125 -3.5 0.21875 -4.1875 0.21875 -4.8125 C 0.21875 -5.132812 0.242188 -5.4375 0.296875 -5.71875 C 0.359375 -6.101562 0.410156 -6.316406 0.453125 -6.359375 C 0.484375 -6.390625 0.597656 -6.40625 0.796875 -6.40625 C 1.265625 -6.40625 1.53125 -6.363281 1.59375 -6.28125 C 1.65625 -6.1875 1.773438 -5.410156 1.953125 -3.953125 C 1.972656 -3.816406 2 -3.617188 2.03125 -3.359375 C 2.09375 -3.484375 2.21875 -3.726562 2.40625 -4.09375 C 2.707031 -4.675781 3.023438 -5.175781 3.359375 -5.59375 C 3.691406 -6.019531 4 -6.3125 4.28125 -6.46875 Z M 4.28125 -6.46875 "/></g></g></g><g fill="#0097b2" fill-opacity="1"><g transform="translate(114.417086, 55.406176)"><g><path d="M 3.34375 -4.734375 C 3.34375 -4.796875 3.300781 -4.894531 3.21875 -5.03125 C 3.1875 -5.070312 3.144531 -5.09375 3.09375 -5.09375 C 3.019531 -5.09375 2.796875 -4.898438 2.421875 -4.515625 C 1.972656 -4.054688 1.71875 -3.738281 1.65625 -3.5625 C 1.59375 -3.382812 1.5625 -2.984375 1.5625 -2.359375 C 1.5625 -1.679688 1.628906 -1.34375 1.765625 -1.34375 C 1.867188 -1.34375 2.035156 -1.460938 2.265625 -1.703125 C 2.453125 -1.878906 2.582031 -2.054688 2.65625 -2.234375 C 2.726562 -2.410156 2.835938 -2.789062 2.984375 -3.375 C 3.046875 -3.59375 3.164062 -4.046875 3.34375 -4.734375 Z M 4 -9.015625 C 4.019531 -9.171875 4.050781 -9.257812 4.09375 -9.28125 C 4.144531 -9.3125 4.289062 -9.328125 4.53125 -9.328125 C 4.75 -9.328125 4.894531 -9.3125 4.96875 -9.28125 C 5.039062 -9.25 5.117188 -9.164062 5.203125 -9.03125 C 5.460938 -8.59375 5.59375 -7.46875 5.59375 -5.65625 C 5.59375 -4.988281 5.585938 -4.453125 5.578125 -4.046875 C 5.546875 -2.015625 5.503906 -0.90625 5.453125 -0.71875 C 5.421875 -0.613281 5.367188 -0.53125 5.296875 -0.46875 C 5.222656 -0.414062 5.082031 -0.359375 4.875 -0.296875 C 4.632812 -0.210938 4.472656 -0.171875 4.390625 -0.171875 C 4.378906 -0.179688 4.359375 -0.1875 4.328125 -0.1875 C 4.316406 -0.195312 4.296875 -0.347656 4.265625 -0.640625 C 4.222656 -0.929688 4.175781 -1.21875 4.125 -1.5 C 4.09375 -1.78125 4.0625 -1.921875 4.03125 -1.921875 C 3.988281 -1.898438 3.875 -1.726562 3.6875 -1.40625 C 3.476562 -1.039062 3.179688 -0.742188 2.796875 -0.515625 C 2.421875 -0.273438 2.0625 -0.15625 1.71875 -0.15625 C 1.550781 -0.15625 1.394531 -0.1875 1.25 -0.25 C 0.988281 -0.363281 0.789062 -0.539062 0.65625 -0.78125 C 0.519531 -1.039062 0.410156 -1.421875 0.328125 -1.921875 C 0.253906 -2.390625 0.21875 -2.726562 0.21875 -2.9375 C 0.21875 -3.394531 0.332031 -3.847656 0.5625 -4.296875 C 0.8125 -4.804688 1.21875 -5.289062 1.78125 -5.75 C 2.351562 -6.195312 2.828125 -6.421875 3.203125 -6.421875 C 3.265625 -6.421875 3.3125 -6.414062 3.34375 -6.40625 C 3.4375 -6.382812 3.484375 -6.375 3.484375 -6.375 C 3.578125 -6.375 3.65625 -6.507812 3.71875 -6.78125 C 3.820312 -7.101562 3.878906 -7.488281 3.890625 -7.9375 C 3.898438 -8.320312 3.9375 -8.679688 4 -9.015625 Z M 4 -9.015625 "/></g></g></g><g fill="#0097b2" fill-opacity="1"><g transform="translate(120.235944, 55.406176)"><g><path d="M 2.765625 -4.21875 C 3.023438 -4.988281 3.144531 -5.503906 3.125 -5.765625 C 3.125 -5.828125 3.113281 -5.941406 3.09375 -6.109375 C 3.03125 -6.023438 2.898438 -5.875 2.703125 -5.65625 C 2.390625 -5.3125 2.195312 -5.050781 2.125 -4.875 C 1.914062 -4.5 1.742188 -4.035156 1.609375 -3.484375 C 1.460938 -2.921875 1.390625 -2.476562 1.390625 -2.15625 C 1.390625 -1.925781 1.425781 -1.8125 1.5 -1.8125 C 1.625 -1.8125 1.8125 -2.054688 2.0625 -2.546875 C 2.3125 -3.023438 2.546875 -3.582031 2.765625 -4.21875 Z M 2.453125 -7.078125 C 2.628906 -7.203125 3.070312 -7.265625 3.78125 -7.265625 L 4.828125 -7.265625 C 4.847656 -7.210938 4.882812 -7.117188 4.9375 -6.984375 C 5.101562 -6.535156 5.203125 -5.207031 5.234375 -3 C 5.242188 -2.488281 5.253906 -1.71875 5.265625 -0.6875 C 5.203125 -0.65625 5.070312 -0.582031 4.875 -0.46875 C 4.625 -0.320312 4.453125 -0.25 4.359375 -0.25 C 4.253906 -0.25 4.128906 -0.425781 3.984375 -0.78125 C 3.828125 -1.132812 3.726562 -1.457031 3.6875 -1.75 C 3.625 -2.082031 3.578125 -2.253906 3.546875 -2.265625 L 3.53125 -2.265625 C 3.457031 -2.265625 3.351562 -2.132812 3.21875 -1.875 C 3.007812 -1.5625 2.796875 -1.300781 2.578125 -1.09375 C 2.421875 -0.925781 2.296875 -0.820312 2.203125 -0.78125 C 2.109375 -0.75 1.9375 -0.734375 1.6875 -0.734375 C 1 -0.734375 0.546875 -0.992188 0.328125 -1.515625 C 0.253906 -1.671875 0.21875 -1.910156 0.21875 -2.234375 C 0.21875 -2.703125 0.285156 -3.238281 0.421875 -3.84375 C 0.546875 -4.4375 0.707031 -4.929688 0.90625 -5.328125 C 1.019531 -5.546875 1.253906 -5.859375 1.609375 -6.265625 C 1.960938 -6.671875 2.242188 -6.941406 2.453125 -7.078125 Z M 2.453125 -7.078125 "/></g></g></g><g fill="#0097b2" fill-opacity="1"><g transform="translate(125.756399, 55.406176)"><g><path d="M 0.5625 -6.046875 C 0.59375 -6.117188 0.738281 -6.15625 1 -6.15625 L 1.15625 -6.15625 C 1.382812 -6.132812 1.53125 -6.109375 1.59375 -6.078125 C 1.65625 -6.046875 1.703125 -5.960938 1.734375 -5.828125 C 1.765625 -5.722656 1.78125 -5.390625 1.78125 -4.828125 C 1.78125 -2.941406 1.722656 -1.601562 1.609375 -0.8125 C 1.554688 -0.507812 1.507812 -0.320312 1.46875 -0.25 C 1.425781 -0.164062 1.332031 -0.0976562 1.1875 -0.046875 C 0.9375 0.0234375 0.78125 0.0625 0.71875 0.0625 C 0.601562 0.0625 0.519531 -0.00390625 0.46875 -0.140625 C 0.4375 -0.273438 0.390625 -0.554688 0.328125 -0.984375 C 0.242188 -1.566406 0.203125 -2.222656 0.203125 -2.953125 C 0.203125 -3.691406 0.238281 -4.359375 0.3125 -4.953125 C 0.375 -5.554688 0.457031 -5.921875 0.5625 -6.046875 Z M 0.640625 -8.5625 C 0.722656 -8.613281 0.878906 -8.640625 1.109375 -8.640625 C 1.359375 -8.640625 1.523438 -8.613281 1.609375 -8.5625 C 1.734375 -8.445312 1.796875 -8.179688 1.796875 -7.765625 C 1.796875 -7.609375 1.769531 -7.472656 1.71875 -7.359375 C 1.644531 -7.222656 1.507812 -7.15625 1.3125 -7.15625 C 1.300781 -7.15625 1.269531 -7.160156 1.21875 -7.171875 L 1.09375 -7.171875 C 0.75 -7.191406 0.578125 -7.25 0.578125 -7.34375 C 0.566406 -7.4375 0.554688 -7.597656 0.546875 -7.828125 L 0.546875 -8.03125 C 0.546875 -8.34375 0.578125 -8.519531 0.640625 -8.5625 Z M 0.640625 -8.5625 "/></g></g></g><g fill="#0097b2" fill-opacity="1"><g transform="translate(127.804529, 55.406176)"><g><path d="M 0.71875 -9.25 C 0.757812 -9.28125 0.90625 -9.296875 1.15625 -9.296875 L 1.328125 -9.296875 C 1.410156 -9.296875 1.570312 -9.289062 1.8125 -9.28125 C 1.84375 -9.1875 1.90625 -9.007812 2 -8.75 C 2.300781 -7.800781 2.453125 -6.328125 2.453125 -4.328125 C 2.453125 -2.421875 2.3125 -1.191406 2.03125 -0.640625 C 1.96875 -0.523438 1.921875 -0.453125 1.890625 -0.421875 C 1.835938 -0.390625 1.773438 -0.375 1.703125 -0.375 C 1.671875 -0.375 1.550781 -0.382812 1.34375 -0.40625 C 1.03125 -0.445312 0.835938 -0.488281 0.765625 -0.53125 C 0.703125 -0.59375 0.625 -0.882812 0.53125 -1.40625 C 0.4375 -1.945312 0.359375 -2.53125 0.296875 -3.15625 C 0.242188 -3.664062 0.21875 -4.207031 0.21875 -4.78125 C 0.21875 -5.8125 0.265625 -6.796875 0.359375 -7.734375 C 0.460938 -8.660156 0.582031 -9.164062 0.71875 -9.25 Z M 0.71875 -9.25 "/></g></g></g><g fill="#0097b2" fill-opacity="1"><g transform="translate(130.50372, 55.406176)"><g><path d="M 4.203125 -6.0625 C 4.242188 -6.15625 4.289062 -6.21875 4.34375 -6.25 C 4.394531 -6.28125 4.488281 -6.296875 4.625 -6.296875 C 4.632812 -6.296875 4.664062 -6.289062 4.71875 -6.28125 L 4.859375 -6.28125 C 5.128906 -6.269531 5.296875 -6.242188 5.359375 -6.203125 C 5.421875 -6.171875 5.488281 -6.054688 5.5625 -5.859375 C 5.664062 -5.585938 5.757812 -5.125 5.84375 -4.46875 C 5.875 -4.15625 5.890625 -3.816406 5.890625 -3.453125 C 5.890625 -1.503906 5.28125 0.269531 4.0625 1.875 C 3.632812 2.4375 3.140625 2.910156 2.578125 3.296875 C 2.015625 3.691406 1.550781 3.890625 1.1875 3.890625 C 1.03125 3.890625 0.914062 3.835938 0.84375 3.734375 C 0.769531 3.628906 0.703125 3.40625 0.640625 3.0625 C 0.617188 2.925781 0.609375 2.847656 0.609375 2.828125 C 0.609375 2.753906 0.660156 2.71875 0.765625 2.71875 C 0.910156 2.71875 1.09375 2.609375 1.3125 2.390625 C 1.5625 2.179688 1.914062 1.773438 2.375 1.171875 C 2.832031 0.554688 3.164062 0.046875 3.375 -0.359375 C 3.570312 -0.703125 3.742188 -1.109375 3.890625 -1.578125 C 4.035156 -2.035156 4.109375 -2.390625 4.109375 -2.640625 L 4.109375 -2.75 C 4.097656 -2.875 4.085938 -2.9375 4.078125 -2.9375 C 4.046875 -2.9375 3.921875 -2.734375 3.703125 -2.328125 C 3.429688 -1.847656 3.171875 -1.5 2.921875 -1.28125 C 2.742188 -1.132812 2.601562 -1.035156 2.5 -0.984375 C 2.382812 -0.953125 2.21875 -0.9375 2 -0.9375 C 1.769531 -0.9375 1.601562 -0.953125 1.5 -0.984375 C 1.394531 -1.035156 1.257812 -1.140625 1.09375 -1.296875 C 0.800781 -1.554688 0.59375 -1.875 0.46875 -2.25 C 0.332031 -2.644531 0.25 -3.179688 0.21875 -3.859375 C 0.207031 -3.984375 0.203125 -4.179688 0.203125 -4.453125 C 0.203125 -4.898438 0.222656 -5.191406 0.265625 -5.328125 C 0.285156 -5.410156 0.316406 -5.546875 0.359375 -5.734375 C 0.441406 -5.734375 0.625 -5.742188 0.90625 -5.765625 L 1.078125 -5.765625 C 1.140625 -5.765625 1.175781 -5.765625 1.1875 -5.765625 C 1.3125 -5.765625 1.390625 -5.75 1.421875 -5.71875 C 1.460938 -5.675781 1.492188 -5.585938 1.515625 -5.453125 C 1.554688 -5.242188 1.578125 -4.8125 1.578125 -4.15625 C 1.578125 -3.675781 1.617188 -3.21875 1.703125 -2.78125 C 1.773438 -2.34375 1.859375 -2.125 1.953125 -2.125 C 2.117188 -2.125 2.328125 -2.429688 2.578125 -3.046875 C 2.765625 -3.453125 3.046875 -3.960938 3.421875 -4.578125 C 3.835938 -5.296875 4.097656 -5.789062 4.203125 -6.0625 Z M 4.203125 -6.0625 "/></g></g></g></svg>